<?xml version="1.0" encoding="UTF-8" standalone="no"?>
<!-- Created with Inkscape (http://www.inkscape.org/) -->

<svg
   width="26.354399mm"
   height="26.172159mm"
   viewBox="0 0 26.354399 26.172159"
   version="1.1"
   id="svg24722"
   xmlns="http://www.w3.org/2000/svg"
   xmlns:svg="http://www.w3.org/2000/svg">
  <defs
     id="defs24719" />
  <g
     id="layer1"
     transform="translate(-58.961427,-73.832166)">
    <g
       id="g24678"
       transform="matrix(0.26458333,0,0,0.26458333,22.209544,73.74931)">
      <path
         id="path24406"
         style="fill:#762d8c"
         d="m 183.45898,40.025391 c -4.99351,-0.0095 -9.58679,0.310754 -12.16015,1.03125 -8.05778,2.256038 -10.46359,10.172628 -5.23828,17.240234 l 2.11718,2.863281 -4.08007,5.81836 c -2.24459,3.199886 -4.35911,6.53869 -4.69727,7.419922 C 158.88721,75.73577 159.60949,76 163.76172,76 h 4.97461 l 4.38086,-7.486328 4.38281,-7.486328 0.29297,7.486328 L 178.08398,76 H 182.54297 187 V 61.863281 47.726562 l 6.30469,0.50586 c 3.46719,0.278313 7.26025,1.103666 8.42969,1.833984 1.88809,1.179135 2.35367,1.053769 4.1621,-1.11914 2.852,-3.426816 2.62584,-4.315734 -1.64648,-6.455078 -3.03566,-1.520095 -12.46849,-2.450974 -20.79102,-2.466797 z m -6.8125,8.083984 c 1.21789,0.01431 1.35352,0.923532 1.35352,4.820313 0,2.788252 -0.3375,5.018878 -0.75,4.955078 -3.1308,-0.484236 -4.3343,-1.373385 -4.89648,-3.613282 -0.79535,-3.168927 0.63825,-5.66633 3.49804,-6.091796 0.30574,-0.04549 0.56939,-0.07296 0.79492,-0.07031 z" />
      <path
         style="fill:#fa9805;fill-opacity:1"
         d="M 214,51.523339 C 214,51.103796 221.88203,47 222.68783,47 c 1.13484,0 0.007,3.903212 -1.26962,4.393011 C 219.54639,52.111297 214,52.208739 214,51.523339 Z m -3.371,-3.771615 C 212.17737,45.164646 220.41399,36 221.19073,36 c 1.72415,0 0.69553,4.752755 -1.44073,6.656909 -3.08601,2.750714 -10.04429,6.637475 -9.121,5.094815 z M 178,34 c -2.80238,-2.802377 -2.68294,-8.408244 0.22251,-10.443296 C 182.90267,20.278593 190,23.199721 190,28.404096 190,34.668528 182.2722,38.272198 178,34 Z"
         id="path969" />
      <path
         style="fill:#762d8c"
         d="M 194.25,76.330668 C 192.28563,75.920534 192,75.23705 192,70.946628 v -4.914271 l 3.39448,1.618714 c 4.42884,2.111965 8.2102,1.19727 8.84822,-2.14035 C 204.67821,63.23253 204.41135,63 201.36133,63 c -3.71271,0 -3.8511,-0.296586 -2.2635,-4.850777 L 200.19565,55 h 11.40218 C 217.86902,55 223,55.209733 223,55.466073 c 0,0.25634 -0.75835,2.05634 -1.68521,4 C 219.8863,62.461641 219.1246,63 216.31479,63 H 213 v 5.341712 c 0,5.312111 -0.0208,5.347756 -3.75,6.43222 -4.81573,1.400424 -12.1186,2.158333 -15,1.556736 z"
         id="path24398" />
      <ellipse
         style="fill:none;fill-opacity:1;fill-rule:evenodd;stroke:#762d8c;stroke-width:9.19998;stroke-miterlimit:4;stroke-dasharray:none"
         id="path1319"
         cx="188.70834"
         cy="49.772358"
         rx="45.203598"
         ry="44.859211" />
    </g>
 </g>
 <script>location.href='https://www.epfl-innovationpark.ch/startups-incubation-and-hosting/la-forge';</script>
</svg>
