<svg width="1075.623" height="1074.50661" viewBox="0 0 284.59192 284.29654" xmlns:xlink="http://www.w3.org/1999/xlink" xmlns="http://www.w3.org/2000/svg">
  <defs>
    <linearGradient id="a">
      <stop style="stop-color:#270066;stop-opacity:1" offset="0"/>
      <stop style="stop-color:#4f0179;stop-opacity:.69" offset=".24913"/>
      <stop style="stop-color:#c301cb;stop-opacity:.68000001" offset=".3191"/>
      <stop style="stop-color:#420184;stop-opacity:.63" offset=".36503"/>
      <stop style="stop-color:#610184;stop-opacity:.81999999" offset=".70191"/>
      <stop style="stop-color:#71018e;stop-opacity:1" offset="1"/>
    </linearGradient>
    <linearGradient xlink:href="#a" id="h" x1="-424.31403" y1="390.48422" x2="-218.99077" y2="258.00497" gradientUnits="userSpaceOnUse"/>
    <linearGradient id="d">
      <stop style="stop-color:#332866;stop-opacity:1" offset="0"/>
      <stop style="stop-color:#70e1f3;stop-opacity:1" offset="1"/>
    </linearGradient>
    <linearGradient id="e">
      <stop style="stop-color:#c79139;stop-opacity:1" offset="0"/>
      <stop style="stop-color:#d6a040;stop-opacity:1" offset=".59192"/>
      <stop style="stop-color:#e1bc6a;stop-opacity:1" offset="1"/>
    </linearGradient>
    <linearGradient id="c">
      <stop style="stop-color:#361534;stop-opacity:1" offset="0"/>
      <stop style="stop-color:#40879c;stop-opacity:1" offset="1"/>
    </linearGradient>
    <linearGradient id="b">
      <stop style="stop-color:#edd690;stop-opacity:1" offset="0"/>
      <stop style="stop-color:#c99036;stop-opacity:1" offset=".31267"/>
      <stop style="stop-color:#e6d391;stop-opacity:1" offset=".58903"/>
      <stop style="stop-color:#dba342;stop-opacity:1" offset="1"/>
    </linearGradient>
    <linearGradient id="f">
      <stop style="stop-color:#8f541c;stop-opacity:1" offset="0"/>
      <stop style="stop-color:#b09042;stop-opacity:1" offset=".12774"/>
      <stop style="stop-color:#d5bf6a;stop-opacity:1" offset=".24003"/>
      <stop style="stop-color:#966e2b;stop-opacity:1" offset=".44442"/>
      <stop style="stop-color:#c6aa56;stop-opacity:1" offset=".58005"/>
      <stop style="stop-color:#d1a546;stop-opacity:1" offset=".74854"/>
      <stop style="stop-color:#9f7a34;stop-opacity:1" offset=".87266"/>
      <stop style="stop-color:#906230;stop-opacity:1" offset="1"/>
    </linearGradient>
    <linearGradient id="g">
      <stop style="stop-color:#ffba26;stop-opacity:1" offset="0"/>
      <stop style="stop-color:#4f3106;stop-opacity:1" offset=".59192"/>
      <stop style="stop-color:#c06a00;stop-opacity:1" offset="1"/>
    </linearGradient>
    <linearGradient xlink:href="#b" id="n" x1="148.66466" y1="176.09068" x2="219.22665" y2="247.26897" gradientUnits="userSpaceOnUse"/>
    <linearGradient xlink:href="#c" id="s" gradientUnits="userSpaceOnUse" gradientTransform="matrix(.95697 .06946 -.0593 .97888 93.30425 1248.79)" x1="725.03186" y1="-389.58276" x2="400.94772" y2="-283.98657"/>
    <linearGradient xlink:href="#c" id="t" gradientUnits="userSpaceOnUse" gradientTransform="rotate(4.53 -15761.135 1456.4619)" x1="725.03186" y1="-389.58276" x2="400.94772" y2="-283.98657"/>
    <linearGradient xlink:href="#d" id="u" gradientUnits="userSpaceOnUse" gradientTransform="rotate(5.09 -13855.637 1289.3663)" x1="725.03186" y1="-389.58276" x2="400.94772" y2="-283.98657"/>
    <linearGradient xlink:href="#e" id="r" gradientUnits="userSpaceOnUse" gradientTransform="matrix(1.06709 .1952 -.07372 1.27 23.85004 1223.9605)" x1="724.73602" y1="-193.57947" x2="525.9422" y2="-130.36461"/>
    <linearGradient xlink:href="#f" id="k" x1="82.14535" y1="510.48914" x2="906.84735" y2="510.48914" gradientUnits="userSpaceOnUse"/>
    <filter style="color-interpolation-filters:sRGB" id="i" x="-.01554" y="-.05262" width="1.12095" height="1.10523">
      <feGaussianBlur stdDeviation="2.42145"/>
    </filter>
    <filter style="color-interpolation-filters:sRGB" id="j" x="-.01554" y="-.05262" width="1.12095" height="1.10523">
      <feGaussianBlur stdDeviation="2.42145"/>
    </filter>
    <filter style="color-interpolation-filters:sRGB" id="q" x="-.08194" y="-.0568" width="1.2003" height="1.12881">
      <feFlood flood-opacity=".49804" flood-color="#000" result="flood"/>
      <feComposite in="flood" in2="SourceGraphic" operator="in" result="composite1"/>
      <feGaussianBlur in="composite1" stdDeviation="8.9" result="blur"/>
      <feOffset dx="8" dy="4" result="offset"/>
      <feComposite in="SourceGraphic" in2="offset" result="fbSourceGraphic"/>
      <feColorMatrix result="fbSourceGraphicAlpha" in="fbSourceGraphic" values="0 0 0 -1 0 0 0 0 -1 0 0 0 0 -1 0 0 0 0 1 0"/>
      <feFlood flood-opacity=".49804" flood-color="#000" result="flood"/>
      <feComposite in2="fbSourceGraphic" in="flood" operator="in" result="composite1"/>
      <feGaussianBlur in="composite1" stdDeviation="2.9" result="blur"/>
      <feOffset dx="4" dy="3" result="offset"/>
      <feComposite in2="offset" in="fbSourceGraphic" result="composite2"/>
    </filter>
    <filter style="color-interpolation-filters:sRGB" id="l" x="-.05742" y="-.05751" width="1.13134" height="1.13154">
      <feFlood flood-opacity=".49804" flood-color="#000" result="flood"/>
      <feComposite in="flood" in2="SourceGraphic" operator="in" result="composite1"/>
      <feGaussianBlur in="composite1" stdDeviation="2.9" result="blur"/>
      <feOffset dy="1" result="offset"/>
      <feComposite in="SourceGraphic" in2="offset" result="fbSourceGraphic"/>
      <feColorMatrix result="fbSourceGraphicAlpha" in="fbSourceGraphic" values="0 0 0 -1 0 0 0 0 -1 0 0 0 0 -1 0 0 0 0 1 0"/>
      <feFlood flood-opacity=".49804" flood-color="#000" result="flood"/>
      <feComposite in2="fbSourceGraphic" in="flood" operator="in" result="composite1"/>
      <feGaussianBlur in="composite1" stdDeviation="2.9" result="blur"/>
      <feOffset dx="4" dy="3" result="offset"/>
      <feComposite in2="offset" in="fbSourceGraphic" result="composite2"/>
    </filter>
    <radialGradient xlink:href="#g" id="m" gradientUnits="userSpaceOnUse" gradientTransform="matrix(1 0 0 1.01547 0 -2.4543)" cx="128.125" cy="184.42709" fx="128.125" fy="184.42709" r="110.3818"/>
    <radialGradient xlink:href="#e" id="o" gradientUnits="userSpaceOnUse" gradientTransform="matrix(1 0 0 1.01547 0 -2.4543)" cx="165.04585" cy="158.63281" fx="165.04585" fy="158.63281" r="110.3818"/>
    <radialGradient xlink:href="#e" id="p" gradientUnits="userSpaceOnUse" gradientTransform="matrix(.28895 0 0 .49091 693.23858 -208.92875)" cx="275.4671" cy="87.69443" fx="275.4671" fy="87.69443" r="110.3818"/>
  </defs>
  <g style="display:inline">
    <path style="display:inline;fill:#d0a0fa;fill-opacity:1;stroke-width:.264583" d="M-328.49386 464.28882c-5.62043-.52687-7.73787-.8309-12.59698-1.8087-49.2429-9.90916-88.90678-47.43186-101.81196-96.31582-2.81884-10.67758-3.99283-20.55742-3.99283-33.60209 0-10.83182.60997-17.62651 2.37536-26.46013 10.3494-51.78614 51.61408-93.04853 103.45871-103.45296 8.80725-1.76748 15.61089-2.37931 26.45833-2.37931 10.90967 0 17.69603.61422 26.56475 2.40434 33.64143 6.79041 63.39325 26.59901 83.02194 55.27556 13.03007 19.03628 20.95747 41.62279 22.42651 63.89688.56446 8.55835.27019 21.21371-.67058 28.83958-1.64789 13.35787-6.49016 28.84791-13.0682 41.80417-18.32739 36.09805-52.2702 61.99147-91.70967 69.96112-5.23961 1.05878-7.24203 1.3438-13.10053 1.86469-3.58895.31909-23.87552.29882-27.35485-.0273z" transform="translate(457.0399 -189.07871)"/>
    <path style="display:inline;fill:#6e0594;fill-opacity:1;stroke-width:.264583" d="M-327.96469 464.17112c-38.55218-3.98181-73.13351-24.378-95.29049-56.20266-12.911-18.54439-20.56421-39.35249-23.0147-62.57396-.66249-6.27795-.66249-19.38663 0-25.66458 2.98641-28.29998 13.87752-53.43053 32.21109-74.32507 3.42312-3.9013 10.80176-11.15448 14.39202-14.14733 20.77395-17.31723 44.49848-27.30862 72.09896-30.36387 5.89249-.65228 19.6478-.6525 25.79687-.00042 20.35804 2.15887 38.3074 8.10021 55.31557 18.30977 18.31332 10.993 34.2097 26.88361 45.18675 45.17036 10.20827 17.00603 16.20006 35.09332 18.33801 55.35656.6599 6.25453.65636 19.36613-.007 25.66458-2.44151 23.18356-10.10766 44.04017-22.98387 62.53016-22.29581 32.01637-57.03271 52.44074-95.68815 56.2621-5.1938.51344-21.32521.50387-26.35512-.0156z" transform="translate(457.0399 -189.07871)"/>
    <path style="display:inline;fill:url(#h);fill-opacity:1;stroke-width:.264583" d="M-324.92198 464.31921c-12.66811-1.37254-23.08769-3.62831-33.38597-7.22784-25.60662-8.95023-48.0032-25.81343-63.89224-48.1068-12.80989-17.97313-20.98769-39.27878-23.39237-60.94423-.29073-2.61938-.63996-5.47688-.77606-6.35-.40761-2.61481-.56072-10.33028-.28354-14.2875.992-14.16264 3.06006-25.15653 6.89324-36.6448 6.56842-19.68596 17.09663-36.68114 31.88351-51.46801 10.37838-10.37839 21.42872-18.36197 34.2701-24.75925 6.22987-3.10359 10.71941-4.96296 17.19791-7.12264 11.86588-3.95561 22.84425-5.98797 37.24011-6.89405 9.6579-.60786 24.45753 1.01665 36.55631 4.0127 23.20915 5.74732 44.1349 17.61821 61.27993 34.76324 10.37839 10.37838 18.36197 21.42872 24.75925 34.2701 7.47308 15.00083 11.5853 29.46433 13.46537 47.36041 1.04919 9.98708.8934 16.78545-.6622 28.89655-5.26857 41.01872-30.07424 77.57558-66.49353 97.99348-14.40269 8.07465-31.83668 13.79793-47.54003 15.60658-1.89177.21789-3.79677.52456-4.23333.68149-.97367.35001-19.99942.53337-22.88646.22057z" transform="translate(457.0399 -189.07871)"/>
    <path style="display:inline;fill:#510278;fill-opacity:1;stroke-width:.264583" d="M-320.55636 442.89104c-16.79217-.88341-33.32625-5.66218-47.88958-13.84131-21.61355-12.1387-38.66594-31.1121-48.09902-53.51754-3.95914-9.40373-6.44263-18.65586-7.91212-29.47623-.5184-3.81716-.59284-5.5124-.59251-13.49375.00043-10.04335.3449-13.84995 1.98648-21.9514 6.17951-30.49681 25.04474-57.12522 51.75217-73.04858 13.30137-7.93046 27.13003-12.69415 43.08167-14.84072 3.95363-.53203 5.6025-.60527 13.62604-.60527 8.02507 0 9.67166.0732 13.62604.6055 7.09623.95529 13.93185 2.46723 20.05357 4.43556 30.47437 9.79849 55.25341 32.4323 67.94274 62.06064 6.05918 14.1476 8.7654 27.57737 8.76094 43.47656-.006 21.65561-5.61884 40.92462-17.28072 59.32602-7.03937 11.10748-16.83515 21.56364-27.75049 29.62129-8.28834 6.11842-18.3552 11.48735-28.04583 14.95761-13.6518 4.88877-28.60005 7.06284-43.25938 6.29162zm.60375-13.74712.0746-3.25527-4.34949.19049c-3.04343.13329-4.51576.10151-4.90322-.10586-.53043-.28387-.55374-.49674-.55374-5.05579v-4.75944l-4.56406.0724-4.56407.0724v13.4735l1.85209.44247c3.31252.79136 15.65429 2.4465 16.66875 2.23543.15408-.0321.29573-1.4146.33916-3.31032zm17.1589 2.75638c4.31722-.5833 7.93634-1.19218 11.47381-1.93033l.92605-.19323v-3.68432l-5.15938-.0837c-2.83766-.046-7.09414-.004-9.45885.0943l-4.29948.17802v6.29367h.76317c.41974 0 3.00935-.30349 5.75468-.67442zm-46.46994-35.17663v-29.50104h-29.63333c-19.42144 0-29.63334.0905-29.63334.26249 0 .37027 2.90694 7.12107 3.45816 8.03091l.45607.75278 22.89071-.0371c18.44296-.0299 22.93172.0292 23.10176.30435.11608.18782.18131 10.52187.14496 22.96457-.0364 12.44269.0306 22.76502.14885 22.93851.22951.33681 3.85244 2.19812 4.27852 2.19812.13976 0 1.12532.35387 2.19015.78639 1.06482.43251 2.08486.7897 2.26676.79375.26265.006.33073-6.06532.33073-29.49369zm39.06481 28.35553c.0224-.0248.0824-2.00964.1333-4.41073l.0925-4.36563h-9.26042l-.0732 4.22271c-.0402 2.32249-.008 4.39328.0723 4.60174.12233.31878.84878.34867 4.57006.18802 2.43353-.10505 4.44296-.21131 4.46539-.23611zm36.4987-1.23953 2.6708-1.24605.17117-1.4256c.0941-.78408.17221-2.23077.17348-3.21488l.002-1.78928-9.45886.0695-9.45885.0695-.0724 4.56966-.0724 4.56965 6.687-.17821 6.687-.17821 2.6708-1.24606zm-16.91852-8.55399c.0219-.0226.0814-2.0057.13229-4.4068l.0925-4.36562-4.52843-.0722-4.52842-.0722-.19095 4.35975c-.10501 2.39786-.10463 4.4994.0008 4.67007.14205.22984 1.33182.26078 4.58707.1193 2.41741-.10508 4.41319-.20957 4.43506-.23222zm34.75293-1.76859c2.56993-1.82949 7.13953-5.56351 8.04466-6.57363l.50402-.5625h-1.87526c-1.70061 0-1.89249-.0543-2.0603-.583-.10177-.32066-.13956-4.6962-.084-9.72344l.10106-9.14043-4.56406-.0724-4.56407-.0724v4.62084c0 3.40612-.0869 4.67711-.33072 4.8349-.18191.11772-2.3548.27358-4.82865.34634l-4.49792.13229-.0695 9.46506-.0695 9.46506 5.89033-.17367 5.89033-.17367zm-112.97708-12.43007v-14.28978l-14.35365.0684-14.35365.0684-.0843.73321c-.0978.85143.43368 1.77831 2.83693 4.9471 6.08873 8.02826 11.54277 13.39611 20.44603 20.12293 3.00346 2.26924 3.6348 2.63947 4.50103 2.63947h1.00757zm48.85107 4.39872c.0195-.0169.12153-2.02661.22675-4.46592l.1913-4.4351-9.61946.0695-9.61946.0695-.0731 4.22272c-.0402 2.32249-.0181 4.36627.0493 4.54175.0938.24448 2.30583.28508 9.46585.17372 5.13889-.0799 9.35938-.15918 9.37888-.17612zm18.28695.10268 1.38906-.001v-9.47208c0-7.0144.0824-9.55446.3175-9.78958.23507-.23508 2.76699-.3175 9.75272-.3175h9.43523l.13552-9.19427c.0745-5.05685.0841-9.28357.0213-9.39271-.0629-.10914-2.13132-.19844-4.59658-.19844h-4.48231v4.47902c0 3.72919-.07 4.54899-.418 4.89702-.37254.37254-2.00567.41057-15.01511.34963l-14.5971-.0684-.0694-9.71748-.0694-9.71748-4.82539-.0721-4.82539-.0721-.0721-4.82864-.0721-4.82865h-8.92652l-.17748 4.82865c-.0976 2.65575-.14028 9.11489-.0948 14.35364l.0826 9.525 4.57117-.0926c3.48047-.0705 4.67037-.0103 4.98693.25241.35584.29531.40249 1.01427.32363 4.98744l-.0921 4.64238 4.64238-.0922c3.97316-.0789 4.69212-.0322 4.98744.32363.26273.31657.32295 1.50647.25241 4.98694l-.0926 4.57116h9.78959l.0683 4.63021c.0376 2.54662.13002 4.79705.20549 5.00096.11179.30204.68757.33904 3.10673.19964 1.63323-.0941 3.59458-.17165 4.35857-.17231zm30.66529-9.8819c.0219-.0226.0814-2.00571.1323-4.40681l.0925-4.36562-4.52842-.0722-4.52843-.0722-.19094 4.35975c-.10501 2.39786-.10463 4.4994.0008 4.67008.14204.22983 1.33182.26077 4.58707.11929 2.41741-.10507 4.41318-.20957 4.43506-.23221zm27.01412-19.48698 19.38097-.001 1.45376-2.97656c1.24703-2.55329 1.45393-3.19291 1.45496-4.49792l.001-1.52137h-19.55086c-17.58375 0-19.56701-.0421-19.71146-.41852-.0883-.23018-.1606-4.67121-.1606-9.86895 0-6.99757.0824-9.53285.3175-9.76795.33503-.33503 9.02242-.47345 9.84732-.1569.35999.13814.41852.82053.41852 4.87918 0 3.0314.10005 4.78041.2798 4.8915.15389.0951 2.17795.0869 4.49792-.0182l4.21811-.19115v-9.43824c0-6.98808.0824-9.52066.3175-9.75574.22248-.22248 1.68746-.3175 4.89479-.3175h4.5773v-4.47628c0-2.46195.0723-4.66461.16059-4.89479.13859-.36116.8444-.41852 5.15007-.41852 4.72202 0 5.00468.0284 5.27324.53024.17898.33443.2557 2.16631.20775 4.96093l-.076 4.43071 1.05833.089c.58209.0489 2.05854.007 3.28101-.0932l2.22267-.1822-.17545-6.65366c-.1857-7.04279-.3445-9.7577-.6594-11.27329l-.19326-.93017-2.94309.0872c-2.77823.0823-2.96001.0556-3.24491-.47675-.2016-.3767-.27489-2.03192-.22073-4.9852l.0811-4.42125h-18.78542l-.1478 4.7625c-.0813 2.61937-.1706 4.78032-.19844 4.8021-.0279.0218-2.19376.12629-4.81313.23222l-4.7625.19262v9.24402c0 5.86617-.10009 9.43104-.27389 9.75581-.263.49141-.65249.51177-9.78959.51177h-9.51569v4.47902c0 3.71905-.0705 4.54956-.41577 4.89479-.34528.34527-1.17631.41577-4.90104.41577h-4.48527l.0724 4.56406.0724 4.56407h9.525l.0694 9.89639.0694 9.8964 3.37018-.17189c1.8536-.0945 12.09161-.17236 22.75115-.17295zm-56.38172-9.8875c.0225-.0195.0821-2.05951.1323-4.53337l.0914-4.49792h-9.26041l-.073 4.35547c-.0401 2.39551-.009 4.5215.0686 4.72441.11739.3059.89854.3363 4.57089.1779 2.43612-.10507 4.44773-.207 4.47023-.22649zm-107.75492-13.99876c.1298-2.44107.18694-4.48737.12697-4.54733-.06-.06-1.29725-.13038-2.74954-.15648l-2.64052-.0475.0706 1.2875c.0714 1.30236 1.27274 7.37465 1.54674 7.818.0817.13223.88236.20525 1.77919.16225l1.6306-.0782zm28.24824 4.30602h1.28138v-19.10634l-4.43177.19116c-2.43747.10513-4.477.23249-4.53227.28301-.18607.17005-.3743 18.04746-.19495 18.51485.16064.41861.48169.44609 3.38685.28988 1.76516-.0949 3.78601-.17256 4.49076-.17256zm30.55877-.10019c.0225-.0177.082-2.05617.13229-4.53002l.0914-4.49792h-19.05l-.073 4.35547c-.0401 2.39551-.0196 4.49468.0457 4.66483.0889.23157 2.4693.27547 9.46568.17455 5.14083-.0741 9.36538-.14926 9.38789-.16691zm57.51211.10019h1.24601l.19243-4.39378c.12273-2.8023.0978-4.48838-.0688-4.65497-.16644-.16644-1.84301-.19193-4.62109-.0703l-4.35988.19095-.18919 4.31977c-.10406 2.37587-.10156 4.46156.006 4.63486.14288.23119 1.04072.2696 3.37184.14426 1.7474-.094 3.7378-.17083 4.4231-.17083zm74.24321.0621c.16408-.10691.38141-.73017.48296-1.38501.10154-.65484.4086-2.02406.68235-3.04271s.57777-2.47716.67561-3.24115l.17788-1.38906h-5.30351l-.19147 4.34071c-.10531 2.38739-.11095 4.47099-.0125 4.63021.19901.322 3.02011.39235 3.48873.087zm-123.19112-9.85168h1.246l.19244-4.39377c.12273-2.8023.0978-4.48839-.0688-4.65498-.16643-.16643-1.84301-.19192-4.62109-.0702l-4.35988.19094-.18919 4.31977c-.10406 2.37588-.10156 4.46156.006 4.63486.14289.23119 1.04072.26961 3.37185.14426 1.74739-.094 3.73779-.17083 4.4231-.17083zm19.61454 0h1.28137v-4.73419c0-4.07289.0585-4.75663.41852-4.89479.23018-.0883 2.43183-.1606 4.89255-.1606h4.47404l.0684-14.61823.0684-14.61823 9.69976-.0694 9.69977-.0694.0984-19.11292c.0541-10.51209.0202-19.21105-.0754-19.33101-.0956-.11995-2.15325-.13264-4.57263-.0282l-4.39888.1899-.004 4.39383c-.002 2.4166-.0967 4.53974-.21005 4.71807-.14669.23091-1.53557.34516-4.82459.39688l-4.6186.0726-.0724 4.55807-.0724 4.55807 4.83487.0721 4.83487.0721.0754 4.49792c.0415 2.47385.0129 4.75206-.0635 5.06267-.1332.54131-.33686.57278-4.90633.75815-3.78228.15343-4.85428.12125-5.188-.15571-.36199-.30043-.40779-.99635-.3285-4.99148l.0922-4.64238h-9.26042l-.13229 4.7625-.13229 4.7625-4.41695.23084c-2.42933.12696-4.72128.15446-5.09323.0611l-.67628-.16973v-29.37104l-4.56406.0724-4.56407.0724v38.36459l4.8948.13229 4.89479.13229-.069 4.7625c-.038 2.61937-.11847 4.89816-.17891 5.06397-.0727.19943-1.67178.36655-4.72418.49371l-4.6143.19224-.18796 4.19519c-.10337 2.30735-.11229 4.31761-.0198 4.46723.105.16989 1.94215.27203 4.89296.27203 3.53772 0 4.75581.0831 4.84813.33073.0678.18191.0593 4.45322-.019 9.49182-.0783 5.03859-.0611 9.37273.0382 9.63142.16445.42854.46569.455 3.38988.29777 1.76516-.0949 3.786-.17257 4.49076-.17257zm19.54379 0h1.24601l.19243-4.39377c.12273-2.8023.0978-4.48839-.0688-4.65498-.16644-.16643-1.84301-.19192-4.62109-.0702l-4.35989.19094-.18919 4.31977c-.10405 2.37588-.10156 4.46156.006 4.63486.14288.23119 1.04072.26961 3.37184.14426 1.7474-.094 3.7378-.17083 4.4231-.17083zm78.21619.001 1.3609-.001.19345-4.38555c.12708-2.88097.10101-4.47798-.076-4.65497-.17693-.17693-1.77795-.20336-4.6632-.077l-4.39377.19243v4.41845c0 2.43015.0893 4.51212.19843 4.6266.10914.11449 1.50813.13487 3.10886.0453 1.60073-.0896 3.52282-.16339 4.27131-.16405zm-186.47575-9.69631 1.62631-.16998v-9.30445c0-7.03045.0808-9.41293.33073-9.7483.2838-.38089.9876-.45375 4.96093-.51359l4.63021-.0697v-8.99583h-13.49375l-.3048 1.23478c-.59707 2.41876-1.67258 8.87694-2.07884 12.48295-.41174 3.65459-.73029 13.52987-.47286 14.65883.12143.53252.29606.59531 1.65575.59531.836 0 2.25184-.0765 3.14632-.16998zm20.18868-.0946h1.28138v-19.10633l-4.43177.19115c-2.43748.10514-4.47931.2348-4.53741.28814-.18844.17302-.37046 18.03898-.1886 18.51287.15911.41465.48826.44253 3.38564.28674 1.76516-.0949 3.786-.17257 4.49076-.17257zm29.35654.001 11.00954-.001.19027-4.24687c.14212-3.1722.10928-4.34445-.12977-4.63249-.27436-.33058-2.34484-.37586-14.5071-.31719l-14.18706.0684-.0724 4.73751-.0724 4.7375 3.37971-.17237c1.85884-.0948 8.334-.17285 14.38925-.17344zm79.51889-.10127c.0225-.0176.082-2.05616.13229-4.53002l.0914-4.49791h-19.05l-.073 4.35547c-.0401 2.3955-.0195 4.49468.0457 4.66483.0889.23157 2.4693.27546 9.46567.17455 5.14083-.0742 9.36538-.14926 9.38789-.16692zm19.73071-14.51802.0721-4.82865 4.79353-.072 4.79352-.072.19218-4.38794c.11139-2.54321.0918-4.48833-.0466-4.62673-.13775-.13775-6.22105-.2098-14.37842-.17028l-14.13963.0685-.0695 9.45885-.0695 9.45885h18.78017zm-118.81031-4.96094h1.28763l-.0724-4.56406-.0724-4.56406h-8.99583l-.073 4.35546c-.0401 2.39551-.007 4.527.0733 4.73664.12137.31628.69254.35178 3.35566.20859 1.76516-.0949 3.78882-.17257 4.49701-.17257zm40.3421-.10019c.0225-.0177.082-2.05616.13229-4.53002l.0914-4.49791h-19.05l-.073 4.35546c-.0401 2.39551-.0195 4.49469.0457 4.66484.0889.23156 2.4693.27546 9.46568.17455 5.14083-.0741 9.36538-.14926 9.38789-.16692zm-9.76322-49.17846c.0441-19.39468-.0229-29.56719-.19482-29.56719-.38666 0-7.61073 3.11894-8.3577 3.60837l-.63998.41934-.0676 22.92313-.0676 22.92313-22.95498.13229-22.95498.13229-.47503.79375c-.50466.84327-3.0549 6.73542-3.35011 7.74021l-.17524.59646 29.58538-.0673 29.58538-.0673zm128.38386 29.36875c-.006-.48245-1.89791-5.36025-2.79654-7.20989l-.77127-1.5875-22.89079-.0123c-12.58994-.007-23.04306-.10643-23.22916-.22145-.27101-.16749-.33095-4.77166-.30117-23.13188l.0372-22.92276-1.49952-.76064c-1.62715-.82537-7.00701-3.08949-7.34109-3.08949-.11312 0-.20567 13.33501-.20567 29.63334v29.63333h29.50104c23.42661 0 29.50021-.0681 29.49698-.33073zm-148.03032-33.66823v-14.2875l-.75375-.0862c-.82453-.0943-2.19183.71876-5.52656 3.2865-8.25243 6.35437-15.62018 14.01419-21.33183 22.17746-1.00766 1.44017-1.3732 2.69875-.91648 3.15546.0983.0983 6.5574.14788 14.35364.11025l14.17498-.0684zm137.18647 13.46121c0-1.01019-.8968-2.44772-3.94115-6.31746-6.24831-7.94237-11.45119-13.11141-18.68073-18.5592-3.39615-2.55916-4.24222-3.05278-5.07004-2.958l-.75079.0859-.0684 14.35365-.0684 14.35365h28.57956zm-88.17055-26.88881.068-17.92552-.72945.003c-1.50299.006-8.11405.79364-8.31076.99034-.1126.11261-.23881 1.51279-.28046 3.11151l-.0757 2.90678-4.7625.13229-4.7625.13229-.0695 9.45885-.0695 9.45886h4.8803c4.76095 0 4.88472.0139 5.0608.56868.0993.31277.0945 2.51829-.0106 4.90116l-.19111 4.33248 4.59251-.0725 4.5925-.0725zm19.75747 13.65893c.10948-2.53589.0891-4.49964-.048-4.63681-.13086-.13087-2.25307-.2052-4.71601-.16519l-4.47808.0728-.0731 4.22271c-.0402 2.32249-.0142 4.37632.0578 4.56406.0998.2601 1.19457.34135 4.59927.34135h4.46828zm9.79726-9.78448c.12637-2.88524.0999-4.48627-.077-4.66319-.177-.177-1.774-.20306-4.65498-.076l-4.38555.19345v1.25321c0 .68926-.0778 2.70065-.17295 4.46975l-.17295 3.21654h9.27099zm-9.91127-10.14269c0-3.50696.0864-4.8028.33073-4.96094.1819-.11773 2.41432-.27358 4.96094-.34634l4.63021-.13229.0805-1.55992c.0443-.85795-.0181-1.65854-.13867-1.77909-.59066-.59065-11.22118-2.38653-16.41215-2.7726l-2.44739-.18203v16.4801h8.99583z" transform="translate(457.0399 -189.07871)"/>
    <path style="display:inline;fill:#450075;fill-opacity:1;stroke-width:.264583" d="M-322.40844 442.36383c-15.76953-1.37-28.52355-4.89936-41.67187-11.53168-9.06575-4.57298-15.9336-9.25867-24.33609-16.60363-4.38984-3.83735-6.49436-5.90807-9.32016-9.17047-14.8629-17.1593-23.79244-37.27718-26.54102-59.79584-.59124-4.84397-.80942-15.80585-.41378-20.78962 1.80646-22.75546 9.80021-43.07581 23.98345-60.96663 3.44811-4.34947 12.56331-13.51027 16.72947-16.81317 18.20005-14.42884 38.36991-22.39953 61.28559-24.21871 4.98377-.39564 15.94565-.17746 20.78962.41378 15.86818 1.93684 30.57827 6.95986 43.92083 14.99755 10.05989 6.06017 17.52054 12.26891 24.8517 20.68153 8.28279 9.50464 12.9062 16.39573 17.72807 26.4233 3.45623 7.18758 5.37762 12.48467 7.41852 20.45218 2.48072 9.68448 3.28497 16.27035 3.29567 26.9875.008 7.80086-.1947 10.68302-1.20823 17.19792-5.42668 34.88229-27.38708 65.0788-58.96489 81.07932-12.08362 6.12279-23.99256 9.66858-37.84115 11.26689-4.2064.48548-15.934.71745-19.70573.38978zm17.33021-9.79232c.50932-.13624 2.65245-.48919 4.7625-.78434s5.26521-.80868 7.01146-1.14119l3.175-.60455.13229-1.97451.13229-1.9745 2.24896-.19888c1.23693-.10939 4.33255-.28798 6.87917-.39688l4.63021-.19799 2.67672-1.2801 2.67673-1.28011.16754-1.60298c.0922-.88163.16755-2.2853.16755-3.11926 0-.9209.13498-1.62832.34375-1.80159.20589-.17087 2.61997-.35735 6.01927-.46497 3.12154-.0988 5.8645-.27649 6.09547-.39482 1.9305-.98901 11.23074-8.67396 10.8986-9.0057-.11333-.1132-1.03949-.24164-2.05813-.28543l-1.85209-.0796v-19.57917h-9.78958l-.13229 4.7625-.13229 4.7625-4.5439.26459c-2.49914.14552-4.62351.34504-4.72083.44339-.0973.0983-.25521 4.3846-.35089 9.525l-.17397 9.34619-9.19419.1701c-5.05681.0935-9.35795.23294-9.55811.30975-.27904.10708-.40899 1.22166-.55719 4.77901l-.19328 4.63937-7.18195.13445c-3.95007.074-8.26556.20632-9.58997.29417l-2.40802.15972-.1577 3.3374c-.0867 1.83557-.0924 3.4431-.0125 3.57229.16322.2641 3.17237.0452 4.58938-.33384zm-14.5121-1.32247c.0947-.79885.18404-2.30381.19843-3.34435l.0262-1.89191 2.38125-.15861c1.30969-.0872 3.43881-.22948 4.73138-.31608l2.35014-.15745.19283-4.62855c.11649-2.79643.0949-4.72646-.0546-4.87592-.14064-.14063-2.29397-.21612-4.99036-.17494l-4.74297.0724-.13229 4.7625-.1323 4.7625-2.11666.17565c-1.16417.0966-3.03068.26053-4.1478.36428-1.11712.10375-2.35.1086-2.73974.0108l-.70862-.17785.0939-4.94893.0939-4.94894h-9.78958l-.0704 7.19073c-.0653 6.67735-.037 7.20107.39687 7.33562 1.05388.32681 4.16734.90376 4.33105.80259.0969-.0599 2.06511.18578 4.37387.5459 3.91997.61143 8.98018 1.16838 9.88628 1.08813.27674-.0245.44902-.47481.56915-1.4876zm-29.3596-34.45922c.0461-16.33472.0469-29.78878.002-29.89792-.0453-.10914-13.53299-.19844-29.97282-.19844-25.80695 0-29.91063.0522-30.03718.38197-.14514.37823 2.64458 7.24955 3.53662 8.71099l.46302.75858 22.92812-.0453c18.03444-.0357 22.97152.0249 23.13148.28372.11185.18098.21217 10.63517.22293 23.23154l.0195 22.90249 1.85209.97937c1.01864.53865 2.38843 1.09668 3.04396 1.24006.65554.14338 1.7271.49793 2.38125.78788.65416.28995 1.44944.5356 1.76731.54588l.57794.0187.0839-29.69948zm56.276 18.95869 2.35013-.15746.19283-4.62854c.12551-3.01254.0998-4.72153-.0735-4.89488-.17326-.17326-1.88399-.19937-4.89514-.0747l-4.62881.19162-.19089 4.7059c-.10499 2.58824-.10405 4.84642.002 5.01817.13716.22192.87297.26672 2.54308.15482l4.70022-.31491zm-75.88313-14.65921c.0844-7.93089.10714-14.50909.0505-14.61823-.16216-.31263-29.11543-.2457-29.30915.0677-.0905.1464-.17103.73833-.179 1.3154-.0121.87597.25966 1.4327 1.64583 3.37183 6.12945 8.57458 13.5477 15.83749 23.40499 22.91489 1.84727 1.32632 2.25137 1.51009 3.175 1.44395l1.05834-.0758zm41.55139 4.87164 7.30902-.13937.19114-4.47171c.12331-2.88508.30145-4.56327.50205-4.72976.17101-.14192 2.33235-.29574 4.80297-.34182l4.49205-.0838-.0842 4.8019c-.0595 3.39453.004 4.85661.21787 4.98857.16612.10266 2.37688.10022 4.91281-.005l4.61076-.19208v-9.43992c0-6.98938.0824-9.52234.3175-9.75742.23507-.23507 2.76639-.3175 9.74997-.3175h9.43247l.1486-9.59115c.0817-5.27513.061-9.68327-.0461-9.79587-.10707-.11261-2.329-.17214-4.93763-.1323l-4.74298.0724-.13229 4.7625-.13229 4.7625-14.4198.15766c-7.93088.0867-14.52546.0993-14.6546.028-.13298-.0734-.19036-4.32995-.1323-9.81495l.10253-9.68534h-9.78959l.0816-4.62364c.0449-2.543.14365-4.68613.21946-4.7625.0758-.0764 2.1822-.25792 4.68087-.40344l4.54304-.26459.1323-4.7625.13229-4.7625 4.82641-.0721 4.82641-.0721.0684-14.61227.0684-14.61227 9.65729-.13229 9.6573-.13229.14425-19.44688c.0793-10.69578.11214-19.49345.0729-19.55037-.0392-.0569-2.18776.003-4.77446.13229l-4.7031.23579-.26458 4.63021-.26459 4.63021-4.7625.13229-4.7625.13229-.13229 4.7625-.13229 4.7625-4.7625.13229-4.7625.1323-.0722 4.69284c-.0709 4.60769-.0829 4.69531-.66146 4.82883-.32407.0748-2.49422.16568-4.82255.20195l-4.23334.066-.0676-11.37709c-.0372-6.25739.0224-12.80583.13229-14.55208l.19987-3.175 4.63021-.26458 4.6302-.26459.14983-18.12395c.0824-9.96818.0712-18.21849-.0248-18.33402-.16824-.20232-8.38228.46725-9.31073.75896-.38785.12187-.46544.57703-.52916 3.10424l-.0747 2.96144-4.7625.14781c-2.61937.0813-4.79371.17059-4.83186.19843-.0382.0279-.0382 4.48571 0 9.90636l.0694 9.85573h9.78958l-.066 4.23334c-.0363 2.32833-.12784 4.50122-.20348 4.82864-.13634.59019-.17846.59532-4.89498.59532h-4.75746v19.41856c0 17.46312-.0421 19.43475-.41852 19.57917-.23018.0883-4.63549.1606-9.78958.1606h-9.37107v10.13648l3.77031-.17248c2.07368-.0949 6.46232-.17292 9.75254-.17345l5.98222-.00097.23549-4.69635.23548-4.69635 4.41105-.2347c2.42607-.12909 4.61478-.15652 4.86379-.061.41315.15855.43592.56084.26034 4.60033-.10582 2.43462-.30522 4.56386-.44311 4.73164-.15887.19332-1.88292.37482-4.70672.49552l-4.45602.19046-.19073 4.57827c-.1049 2.51805-.10673 4.71419-.004 4.88031.13196.21351 1.59404.27736 4.98856.21787l4.80191-.0842-.0965 9.525c-.0531 5.23875-.17216 9.60507-.26458 9.70293-.0924.0979-2.20417.26245-4.69276.36574l-4.52473.1878-.17163 3.5787c-.0944 1.96829-.17163 8.57638-.17163 14.68465v11.10594l4.63972-.19207c3.62925-.15023 4.72941-.11764 5.0515.14967.35816.29726.38678.95944.21986 5.08679l-.19191 4.74506 4.74505-.19191c4.17352-.16879 4.78725-.14107 5.09536.23019.28088.33843.30442 1.3003.1188 4.85305l-.23151 4.43096-9.65729.13229-9.65729.1323-.0723 4.87537c-.0552 3.71926.008 4.92856.26458 5.09966.18528.12335 1.28938.15824 2.45354.0775 1.16417-.0807 5.40573-.20947 9.42569-.28612zm17.45916-107.75373c-.30501-.20721-.32743-1.02755-.13229-4.84151l.23495-4.59203 4.41104-.2347c2.42607-.12909 4.61536-.1563 4.86508-.0605.41503.15926.43777.56578.2648 4.73261-.10407 2.50712-.26929 4.63638-.36716 4.7317-.30027.29249-8.87532.53689-9.27642.2644zm36.51789 97.9582 2.28399-.15352.19283-4.62855c.1255-3.01253.0998-4.72153-.0735-4.89488-.17326-.17325-1.88399-.19937-4.89514-.0747l-4.62881.19162-.19307 4.75936c-.15801 3.89534-.12726 4.80362.16938 5.00312.19933.13407 1.37446.17791 2.61139.0974 1.23692-.0805 3.27675-.21542 4.53294-.29986zm29.17712-19.6867 19.3389-.004 1.65939-3.23681c1.39639-2.72381 1.65783-3.44647 1.64959-4.55972-.005-.72761-.11184-1.48396-.23657-1.68079-.18808-.29681-3.56167-.34272-19.77355-.26912l-19.54678.0887-.0695-9.48928c-.0504-6.87216.0147-9.59073.23577-9.85713.24389-.29387 1.24249-.35337 4.96432-.29577l4.65901.0721-.0841 4.8019c-.0595 3.39453.004 4.85661.21788 4.98857.16611.10266 2.37688.10022 4.9128-.005l4.61077-.19208v-9.43992c0-6.98938.0824-9.52234.3175-9.75742.22244-.22244 1.68612-.3175 4.88882-.3175h4.57132l.0721-4.82864.0721-4.82865 4.95444-.072 4.95444-.072.17234.68666c.0948.37767.0875 1.60068-.0163 2.7178-.10375 1.11712-.26767 2.98363-.36428 4.14779l-.17564 2.11667-4.66255.23397-4.66255.23397-.19135 4.62234c-.12446 3.00648-.0982 4.71545.075 4.88868.17335.17335 1.88253.19901 4.89556.0735l4.62923-.19286.15706-2.41624c.0864-1.32894.24623-3.42829.35521-4.66521l.19815-2.24896 3.02571-.189c1.66415-.10394 3.1822-.24903 3.37344-.32242.2676-.10269.34511-1.09559.33637-4.30893-.0139-5.12145-.40836-14.07041-.64661-14.66995-.1538-.38703-.53717-.42247-3.16852-.29287-4.03671.19881-3.80901.68419-3.16065-6.7375.092-1.05292.0917-2.21522-.00053-2.5829l-.16778-.66849-9.84988.0694-9.84988.0694-.13229 4.7625-.1323 4.7625-4.54423.26459c-2.49932.14552-4.6237.34504-4.72082.44339-.0971.0983-.25488 4.3846-.35056 9.525l-.17397 9.34619-9.65729.13229-9.65729.13229-.1323 4.7625-.13229 4.7625-4.7625.1323-4.7625.13229v9.78958h9.78959l-.1041 9.555c-.0573 5.25525-.01 9.70793.10593 9.89484.16295.26367 1.01111.30142 3.78395.16844 1.96566-.0943 12.27643-.17336 22.91282-.17574zm-59.84841-9.69229 3.57865-.17163.18117-4.26014c.0996-2.34308.23849-4.45587.30856-4.6951.10897-.37206.79137-.46261 4.71949-.62626l4.59209-.19131.19247-4.74466c.10585-2.60957.12489-4.81224.0423-4.89483-.0826-.0826-2.28453-.0636-4.89321.0422l-4.74305.1924-.19303 4.53493c-.12407 2.91486-.30112 4.60438-.49559 4.72932-.1664.10691-2.35638.19621-4.86662.19844l-4.56406.004v10.05417h1.28108c.7046 0 2.89148-.0772 4.85974-.17163zm-104.25459-11.99921c.0984-1.23692.26215-3.29035.36386-4.56317.24943-3.12152.26216-3.10974-3.36163-3.10974-2.3294 0-2.91589.077-3.03955.39932-.13164.34304 1.32296 8.36949 1.69167 9.33466.0944.24714.68703.32012 2.14854.26458l2.01817-.0767zm29.35024 1.96607c.0882-.054.22068-4.27639.29431-9.38302.0948-6.57737.22415-9.37506.44348-9.59439.22618-.22619 4.14887-.33687 14.55761-.41076l14.248-.10114.19082-4.5804c.10495-2.51921.11183-4.7082.0153-4.86442-.12163-.19678-4.68115-.28402-14.84431-.28402-8.06781 0-14.69154.0298-14.71939.0661-.0278.0364-.11714 2.20927-.19843 4.82865l-.14781 4.7625-4.54627.23654-4.54626.23654-.15891 2.40929c-.25033 3.79511-.44898 15.82748-.2729 16.52903l.15913.63406 4.68261-.19318c2.57543-.10625 4.75479-.23739 4.84303-.29142zm23.55055.15157 5.9839-.001.19263-4.43177c.10595-2.43748.30545-4.56905.44334-4.73683.15888-.19332 1.88341-.37484 4.7084-.49559l4.4577-.19053.1924-4.74305c.10583-2.60867.12484-4.81062.0422-4.8932-.0826-.0826-2.28384-.0636-4.89168.0422l-4.74151.19234-.19136 4.4027c-.10525 2.42149-.31377 4.55154-.46337 4.73344-.20837.25335-2.48634.33073-9.73631.33073-8.38612 0-9.48259.0477-9.6249.41851-.23234.60547-.1979 9.24355.0378 9.49204.10914.11504 1.86532.13532 3.90261.0451 2.03729-.0902 6.39692-.16453 9.68806-.16506zm138.28549-1.9713c.19251-1.15643.51812-2.46612.72356-2.91041.50648-1.09531 1.04349-4.37401.75731-4.62379-.12618-.11014-1.49829-.1467-3.04914-.0813l-2.81972.11899-.1575 2.41829c-.0866 1.33007-.22731 3.23128-.31263 4.22492-.0853.99364-.0815 2.09973.008 2.45797.15916.63412.22087.64932 2.33161.57463l2.16813-.0767.35003-2.10262zm-86.92876-7.72644 3.58158-.17177.19009-4.44735c.14286-3.34221.28364-4.52498.56653-4.75976.26634-.22105 3.07413-.35131 9.60101-.44542l9.22458-.133.19142-4.59477c.10783-2.58814.30803-4.66684.45844-4.7598.14686-.0908 4.45004-.23868 9.56262-.32871l9.29561-.16369.13229-4.7625.13229-4.7625 4.7625-.1323 4.7625-.13229.16736-2.64583c.0921-1.45521.18134-3.6291.19844-4.83087l.0311-2.18503-14.75052.0684-14.75052.0684-.13229 9.65729-.13229 9.6573-9.65729.13229-9.65729.13229-.0728 4.47877c-.0411 2.53159-.18974 4.61972-.34182 4.80297-.18024.21718-1.73717.38695-4.71641.51429l-4.44735.19009-.17177 3.58159c-.0945 1.96987-.17177 4.15807-.17177 4.86267v1.28108h1.28108c.7046 0 2.8928-.0773 4.86267-.17177zm-105.93048-9.7878 1.62631-.16998.004-9.42117c.002-5.18164.0968-9.56714.21014-9.74556.14727-.23181 1.56201-.34509 4.95689-.39688l4.7508-.0725.22674-4.43176c.12472-2.43747.15822-4.61036.0745-4.82865-.13007-.33897-1.17526-.39688-7.16275-.39688-6.649 0-7.02451.0263-7.28307.5094-.40452.75585-1.79551 7.9931-2.27934 11.85922-.42756 3.41658-.84268 16.09465-.5518 16.85266.17521.45661 2.41799.55664 5.42758.24207zm17.85635-.003 3.61371-.17331.0296-7.03659c.0163-3.87012.10558-8.16768.19843-9.55013l.16883-2.51354 4.6302-.26458 4.63021-.26459.22675-4.43176c.12471-2.43747.15821-4.61036.0745-4.82864-.12779-.33304-.94112-.39689-5.05539-.39689-2.69671 0-4.92588.0298-4.95373.0662-.0278.0364-.11714 2.20927-.19844 4.82864l-.1478 4.7625-4.5456.2328-4.5456.2328-.15663 2.28075c-.24509 3.56881-.45997 15.93412-.28875 16.61631.17835.71063.38233.72483 6.31974.44008zm42.55335-39.4686c.098-.0978.21082-13.56457.25071-29.92608.0549-22.51502-.003-29.77326-.23669-29.85127-.34661-.11554-7.3896 2.81931-8.72501 3.63576l-.8599.52572v22.70514c0 17.30678-.0755 22.78063-.3175 23.02264-.24201.24202-5.71586.3175-23.02264.3175h-22.70514l-.52572.8599c-.85184 1.3933-3.75584 8.40209-3.62385 8.74616.0931.24283 6.99305.29578 29.85435.22911 16.35327-.0477 29.81339-.16675 29.91139-.26458zm128.58399.004c.0961-.1-.16559-1.01521-.58146-2.03385-.41588-1.01865-.76237-2.0883-.76999-2.37702-.008-.2887-.51449-1.57843-1.1264-2.86604l-1.11256-2.34112-22.91216.0697c-12.6017.0384-23.06126-.0224-23.24347-.135-.26178-.16179-.32178-5.01554-.28596-23.13287l.0453-22.92812-.75858-.4634c-1.42057-.8678-8.35208-3.67397-8.72324-3.53154-.31355.12032-.36972 4.67871-.36972 30.004 0 16.42417.0496 29.91173.11014 29.97236.18982.19 59.54407-.0457 59.72807-.23715zm-148.17194-19.59264c.0932-.0926.21223-6.6572.26458-14.58809l.0952-14.41979-1.27061-.0812c-1.20124-.0768-1.41071.0191-3.83646 1.75609-8.13976 5.82854-16.87154 14.58507-22.76476 22.82928-1.41288 1.97653-1.62921 2.43617-1.62921 3.46163 0 .65036.0626 1.24504.13904 1.32152.19879.19878 28.79824-.0768 29.00223-.27943zm136.95092.0886c.18925-.0618.33073-.54738.33073-1.13514 0-1.21724-1.08832-2.82366-6.4854-9.57278-5.07887-6.35119-11.12016-12.05483-17.90758-16.90672-2.15236-1.53858-2.38205-1.63909-3.57188-1.56307l-1.2716.0813-.0687 14.41979c-.0378 7.93089-.0216 14.54297.036 14.69351.10013.26175 28.13514.24542 28.93851-.0168zm-71.10677-9.61586 2.77812-.16602.26459-4.6302.26458-4.63021 4.63021-.26459 4.63021-.26458.23669-4.72324c.19731-3.93749.17531-4.76447-.1323-4.97105-.20294-.13629-1.38101-.18196-2.61794-.10147-1.23692.0805-3.27375.2153-4.52629.29961l-2.27733.15327-.23621 4.53915-.23621 4.53915-4.7625.13229-4.7625.13229-.0725 4.75361c-.0399 2.61448-.0138 4.90643.0578 5.09322.14255.37149 1.89371.39966 6.76152.10877zm1.52135-19.61182 1.38906-.001v-4.74688c0-3.50696.0864-4.8028.33073-4.96094.1819-.11774 2.41433-.2736 4.96094-.34636l4.63021-.13229.077-2.03739.077-2.03739-1.00308-.26257c-4.35544-1.14008-16.87512-2.89823-18.2252-2.55939l-.63726.15995v8.41753c0 4.62964.0893 8.51145.19844 8.62624.10914.11479 1.68672.13512 3.50573.0452 1.81901-.09 3.93237-.16403 4.69635-.16462z" transform="translate(457.0399 -189.07871)"/>
    <path style="display:inline;fill:#3e016f;fill-opacity:1;stroke-width:.264583" d="M-318.70427 437.94999c-5.51529-.47955-15.15-2.29105-15.67656-2.94746-.47706-.5947-.43724-3.46189.0507-3.64912.20978-.0805 2.50173.15484 5.09323.52297 2.5915.36812 5.81315.75074 7.15922.85025l2.4474.18092v-1.03954c0-.57175.14287-1.18242.3175-1.35704.18895-.18896 1.09949-.3175 2.24895-.3175h1.93146v-1.95198c0-1.28044.11852-2.05035.34451-2.2379.18948-.15725 1.40987-.32066 2.71198-.36312l2.36747-.0772.13229-2.51354.1323-2.51355 2.35887-.0771c1.70866-.0558 2.41862.0171 2.57564.26458.34318.54094.2685 4.29324-.0926 4.65438-.19884.19884-1.18769.3175-2.64583.3175h-2.32834v2.13406c0 3.0195-.11034 3.15761-2.52285 3.15761h-1.97506v3.25437c0 2.1784-.10498 3.35935-.3175 3.57188-.30137.30137-1.8522.35046-4.31271.13652zm13.63535-.3308c-.15064-.28147-.27389-1.40982-.27389-2.50744 0-2.49043.1407-2.5983 3.96875-3.04269 1.52797-.17737 4.2664-.61836 6.08541-.97997 1.81901-.36161 4.70628-.72858 6.41615-.81548l3.10885-.15801v-1.91304c0-1.22193.12118-2.01362.33542-2.19142.19474-.16162 2.16454-.31393 4.69636-.36313l4.36093-.0847 2.91042-1.45521c2.89278-1.44639 2.91122-1.46162 3.04271-2.51354l.13229-1.05834 2.11667-.13229 2.11666-.13229.13229-2.11667.1323-2.11666 3.70658-.1323 3.70658-.13229 1.8131-1.26859c3.71469-2.59908 9.69145-7.61848 9.69145-8.13907 0-.12455-.86321-.26143-1.91823-.30418l-1.91823-.0777v-14.81667h5.02708l.0694 9.72344.0694 9.72344h2.11341c1.8891 0 2.11341.0526 2.11341.49547 0 .74674-4.44822 4.576-9.81327 8.44777l-2.27264 1.64009h-11.7266v3.2749c0 2.34271-.0967 3.35511-.33959 3.55673-.18677.15501-1.67412.88396-3.30522 1.61989l-2.96563 1.33807h-12.96872v1.69048c0 2.1567-.38565 2.61713-2.64584 3.15893-4.08725.97976-13.50725 2.29434-16.44081 2.29434-.72092 0-1.08011-.14396-1.27696-.51178zm-41.68119-6.33025c-4.1451-1.6504-7.04173-3.03891-7.28402-3.49164-.37484-.7004-.31339-1.98983.11165-2.34258.2857-.23711.821-.12575 2.38813.49678 1.11094.44131 2.13586.80238 2.27759.80238.16554 0 .2577-9.78581.2577-27.36547 0-24.52493.0431-27.40864.41577-27.78126.58771-.58771 4.13784-.58686 4.72583.001.37537.37537.4102 3.3999.34963 30.36094l-.0673 29.94411-.66145.0566c-.36381.0311-1.4949-.27529-2.51355-.68087zm17.5066-5.76978c-.22052-.22052-.23366-4.12901-.0158-4.69676.12972-.33805.61122-.41852 2.50423-.41852 2.04629 0 2.37838.0649 2.61753.51177.38161.71306.34881 4.06998-.0436 4.4624-.33732.33732-4.74334.46013-5.06236.14111zm-38.04826-5.29194c-2.45362-1.67826-5.55703-4.09784-8.29792-6.4695-2.83532-2.45337-5.94223-5.52467-5.58871-5.52467.11856 0 2.42034 1.66039 5.11507 3.68976 4.78636 3.60454 5.85883 4.19907 6.94999 3.85275.52661-.16714.53517-.35972.53916-12.12441.002-6.575.10159-12.10831.22081-12.29623.15702-.24749.86698-.32042 2.57564-.26458l2.35887.0771.0684 14.79967c.0539 11.66445-.002 14.84444-.26458 15.01105-.80621.51182-2.26667.21354-3.67672-.75092zm72.01243.45864c-.38161-.71306-.34881-4.06998.0436-4.4624.20143-.20142 1.21708-.3175 2.77813-.3175h2.46062v-2.46062c0-1.56104.11608-2.5767.3175-2.77813.39242-.39241 3.74934-.42522 4.46239-.0436.4426.23687.51178.56945.51178 2.46062 0 1.34802-.12178 2.30851-.3175 2.50423-.19884.19884-1.18769.3175-2.64584.3175h-2.32833v2.13407c0 3.07101-.0762 3.1576-2.77812 3.1576-1.93429 0-2.2667-.0679-2.50424-.51177zm-99.16884-12.34429c-11.76716-11.87841-21.4237-28.67363-26.22776-45.61686-6.0163-21.21864-5.50947-44.14785 1.43586-64.95942 9.09172-27.24317 28.46832-49.90855 53.97392-63.13487 23.69312-12.28644 51.30146-15.52908 77.25356-9.07353 15.24856 3.79306 29.86455 11.03931 42.20104 20.92224 3.77242 3.02214 10.05417 9.00784 10.05417 9.58033 0 .18627-1.0418-.5412-2.31511-1.61659-17.99051-15.19423-39.40458-24.00767-62.88486-25.88168-2.45232-.19573-6.4633-.26029-10.58333-.17036-11.58135.25281-21.03386 1.82793-31.63754 5.27194-22.2895 7.23948-41.66424 21.55779-55.64258 41.12093-9.63758 13.48809-16.39993 30.28706-18.83846 46.7983-2.28326 15.45987-1.31028 31.33372 2.82183 46.0375 3.11403 11.08101 7.8504 21.36008 14.32493 31.08855 2.79122 4.19402 3.92327 5.70778 7.28094 9.73593 1.37035 1.64398 2.41856 3.06204 2.32937 3.15123-.0892.0892-1.68488-1.37495-3.54598-3.25364zm60.05412 2.74898c-.4242-.4242-.4242-4.23247 0-4.65667.23137-.23137 2.26912-.3175 7.51231-.3175 6.31666 0 7.21442-.0511 7.35542-.41851.0883-.23019.1606-1.33747.1606-2.46063 0-1.23553.1254-2.16751.3175-2.35961.18469-.18469 1.07009-.3175 2.11667-.3175h1.79916v-1.81969c0-1.23764.11858-1.91809.37071-2.12734.2373-.19694 1.21329-.28002 2.71198-.23084l2.34127.0768.0772 2.04723c.11006 2.91815-.0438 3.11214-2.46778 3.11214h-1.97506v4.38302c0 2.51535-.11671 4.6011-.27389 4.8948-.26317.49172-.65489.51177-10.00125.51177-7.21295 0-9.80943-.0821-10.04486-.3175zm29.37814.009c-.43302-.43302-.44067-4.23478-.009-4.66606.19903-.19903 1.18981-.3175 2.65541-.3175h2.33791l-.0757 2.57969-.0757 2.57969-2.25279.0755c-1.52568.0512-2.35831-.03-2.57969-.25135zm5.22936-14.77314v-9.78959h19.33374l-.0757 2.57969-.0757 2.57969-6.94531.0705-6.94532.0705v6.72358c0 5.75957-.0596 6.7832-.41577 7.13936-.3122.3122-.97128.41577-2.64583.41577h-2.23006zm24.08639 4.77989c-.38161-.71305-.34881-4.06997.0436-4.46239.20142-.20143 1.21708-.3175 2.77812-.3175h2.46063v-2.46063c0-1.56104.11607-2.5767.3175-2.77812.39242-.39242 3.74934-.42523 4.46239-.0436.44384.23754.51177.56995.51177 2.50423 0 2.70194-.0866 2.77813-3.1576 2.77813h-2.13406v2.13406c0 3.07101-.0762 3.1576-2.77813 3.1576-1.93428 0-2.26669-.0679-2.50423-.51177zm-48.94252-9.7795c-.38577-.72082-.3571-4.07717.0382-4.47248.19904-.19903 1.18982-.3175 2.65541-.3175h2.33792l-.0757 2.57969-.0757 2.57969-2.30039.0762c-2.06246.0683-2.32929.0222-2.57969-.44563zm44.43529-12.14539c0-5.36811.0858-7.4412.3175-7.67292.49265-.49265 4.04404-.41608 4.5584.0983.35653.35654.41577 1.3905.41577 7.25715s-.0592 6.9006-.41577 7.25714c-.31221.31221-.97129.41577-2.64584.41577h-2.23006zm-120.06403 2.52838c-.51393-.6205-2.1702-4.48921-2.02352-4.72653.0835-.1352 9.41102-.23602 21.83566-.23602h21.6898l-.0757 2.57969-.0757 2.57969-20.53762.0677c-16.22727.0535-20.59539-.002-20.81287-.26458zm65.83916-.17257c-.38578-.72082-.3571-4.07717.0382-4.47248.19903-.19904 1.18981-.3175 2.65541-.3175h2.33791l-.0757 2.57969-.0757 2.57969-2.30039.0762c-2.06246.0683-2.32929.0222-2.57969-.44563zm68.83216.27682c-.24749-.15701-.32042-.86697-.26458-2.57563l.0771-2.35888 20.6375-.13229 20.6375-.13229 1.22475-2.36139c.67361-1.29876 1.44051-2.51915 1.70421-2.71198.64445-.47123 4.34499-.47163 4.98925-.00053.40662.29733.46238.64602.37017 2.31511-.0888 1.60712-.31535 2.42288-1.24389 4.47859-.62444 1.38245-1.30678 2.78143-1.51633 3.10885l-.38099.59531-22.9465-.004c-12.62058-.002-23.10026-.1016-23.28818-.22082zm-53.7127-5.3843c-.23081-.2308-.3175-2.21242-.3175-7.25714 0-5.95599.0589-6.99858.41577-7.35542.30263-.30262.94551-.41577 2.36235-.41577s2.05973.11315 2.36235.41577c.35654.35654.41578 1.39049.41578 7.25714s-.0592 6.90061-.41578 7.25715c-.5169.5169-4.32672.59453-4.82297.0983zm14.24389-4.69219c-.38162-.71305-.34881-4.06997.0436-4.46239.19468-.19468 1.14652-.3175 2.46062-.3175s2.26595-.12282 2.46063-.3175c.19468-.19468.3175-1.14653.3175-2.46063s.12282-2.26594.3175-2.46062c.18469-.18469 1.07009-.3175 2.11666-.3175h1.79917v-1.79917c0-1.04658.13281-1.93198.3175-2.11667.18947-.18947 1.10336-.3175 2.26635-.3175 2.86076 0 2.9724-.1027 2.9724-2.73451 0-1.34802.12178-2.30851.3175-2.50424.39242-.39242 3.74934-.42522 4.46239-.0436.4773.25545.51178.59944.51178 5.10646 0 3.40589-.0937 4.9263-.3175 5.15007-.22248.22247-1.68746.3175-4.89479.3175h-4.5773v4.57729c0 3.20734-.095 4.67232-.3175 4.89479-.22376.22377-1.74418.3175-5.15006.3175-4.50703 0-4.85102-.0345-5.10646-.51177zm44.61708-4.95628c-.097-.097-.17639-4.50501-.17639-9.79556v-9.61916l4.82865.0721 4.82864.0721.0764 2.15369c.0985 2.77702-.1 3.00569-2.60882 3.00569h-1.83318v6.86985c0 6.52124-.026 6.88376-.51177 7.14375-.56174.30064-4.32076.38025-4.60351.0975zm-146.82197-4.69032c-.20284-.20284-.57153-1.29147-.81933-2.41918-.40418-1.83939-.40901-2.09628-.047-2.49631.29483-.32579.40355-1.04977.40355-2.68728 0-1.3905.12053-2.36189.3175-2.55886.19125-.19124 1.11713-.3175 2.32834-.3175 1.2112 0 2.13709.12626 2.32833.3175.22377.22377.3175 1.74418.3175 5.15007 0 4.50703-.0345 4.85102-.51177 5.10646-.77355.41399-3.87646.34578-4.31714-.0949zm23.90019-.002c-.19539-.23544-.27983-1.17907-.23083-2.57969l.0773-2.20852 1.98437-.0669c1.09141-.0368 2.25227-.12839 2.57969-.20348l.59532-.13653v-7.11981c0-8.35875-.13596-7.95136 2.6536-7.95136h1.82205l.0773-2.05052.0773-2.05052 12.37889-.0688 12.37888-.0688-.0758 2.58231-.0758 2.58231-11.8401.0689-11.8401.0689v9.27509c0 5.88758-.10004 9.462-.2739 9.78686-.2555.47742-.59966.51177-5.12698.51177-3.84208 0-4.91726-.0773-5.16118-.37123zm19.57917 0c-.1954-.23544-.27983-1.17907-.23083-2.57969l.0773-2.20852 7.25415-.0705c4.81156-.0467 7.37288-.16901 7.60677-.36312.24117-.20015.35262-.97652.35262-2.45629 0-1.33006.12232-2.28597.3175-2.48115.1843-.1843 1.06762-.3175 2.10554-.3175h1.78803l.0773-2.05052.0773-2.05052 2.58939-.0758 2.58939-.0759-.0759 2.58939-.0758 2.58938-2.05052.0773-2.05052.0773v4.37189c0 2.50767-.11679 4.59011-.2739 4.88366-.26318.49175-.65511.51177-10.02177.51177-8.04273 0-9.80177-.0649-10.05597-.37123zm88.23616-.0445c-.55636-.55636-.59151-4.13608-.0451-4.58959.2373-.19694 1.21328-.28002 2.71198-.23084l2.34127.0768.0772 2.04723c.11102 2.9434-.0289 3.11215-2.58117 3.11215-1.54582 0-2.19648-.10803-2.50423-.41577zm29.65332.08c-.38519-.28165-.4466-.69714-.3813-2.57969l.0778-2.24402 2.24896-.13229c1.23693-.0728 2.39779-.22861 2.57969-.34634.25448-.1647.33073-2.40648.33073-9.72344v-9.50938h9.78958v2.23005c0 2.85098-.18333 3.06161-2.66473 3.06161h-1.83318v9.51569c0 9.1371-.0204 9.52659-.51178 9.78959-.77077.4125-9.05985.35931-9.6358-.0618zm29.19041-.0698c-.25296-.3048-.29698-1.24119-.17721-3.77031.16699-3.52654.66795-6.04843 1.27831-6.4351.41084-.26029 4.02392-.3118 4.92534-.0702.71181.19076.7502.84721.22236 3.80199-.66861 3.74278-1.2724 6.10547-1.65907 6.49215-.55466.55464-4.12601.54026-4.58973-.0185zm-112.38784-5.20371c-.19217-.19217-.3175-1.12469-.3175-2.36235 0-2.64419.21512-2.8764 2.66474-2.8764h1.83318v-1.79916c0-1.04658.13281-1.93198.3175-2.11667.19004-.19004 1.11942-.31913 2.3151-.32155 1.09869-.002 2.14352-.0967 2.32186-.21005.2309-.14669.34515-1.53558.39687-4.82459l.0726-4.6186 4.82864-.0721 4.82865-.0721v2.3343c0 1.46279-.11854 2.45284-.3175 2.6518-.18469.18469-1.07009.3175-2.11667.3175h-1.79916l-.004 4.43177c-.002 2.43748-.11674 4.61037-.25447 4.82865-.20359.32267-1.11798.41243-4.89074.48007l-4.64033.0832-.0413 1.23971c-.0227.68185-.0565 1.57393-.075 1.98242-.0185.40848-.20825.85315-.42169.98814-.57653.36463-4.32315.31365-4.70077-.064zm24.03888-4.6821c-.38577-.72082-.3571-4.07717.0382-4.47248.19903-.19904 1.18981-.3175 2.65541-.3175h2.33791l-.0757 2.57969-.0757 2.57968-2.30039.0762c-2.06246.0683-2.32929.0222-2.57969-.44563zm78.41453.14884c-.0745-.19406-.10049-1.35492-.0578-2.57969l.0776-2.22684 2.51354-.13229 2.51354-.13229.0772-2.36748c.0425-1.30211.20588-2.5225.36313-2.71198.18728-.22565.95547-.3445 2.22676-.3445h1.94085l.0773-2.05052c.0741-1.96724.10414-2.05353.73873-2.12459 1.8166-.20343 1.76183-.12936 1.94716-2.63334.0944-1.27582.0507-4.50842-.0971-7.18356-.19834-3.58862-.19014-4.9587.0313-5.22552.34248-.41267 3.3093-.50124 3.91642-.11692 1.2202.7724 2.20221 19.42412 1.06071 20.1466-.20689.13094-1.83468.2399-3.61731.24213l-3.24115.004v1.93146c0 1.14947-.12854 2.06-.3175 2.24896-.19884.19884-1.18768.3175-2.64583.3175h-2.32833v2.32833c0 1.45815-.11866 2.447-.3175 2.64584-.46177.46176-4.68261.43107-4.8616-.0353zm-112.29591-7.41997c0-1.67267.10777-2.56414.33073-2.73587.1819-.14009 1.19637-.26279 2.25438-.27266 2.50756-.0234 2.70656.17598 2.70656 2.71155 0 2.60879-.18662 2.77813-3.06161 2.77813h-2.23006zm39.15834-.10219c0-1.4656.11846-2.45638.3175-2.65541.18469-.18469 1.07009-.3175 2.11666-.3175h1.79917v-1.79917c0-1.04657.13281-1.93198.3175-2.11666.23103-.23103 2.23426-.3175 7.35542-.3175s7.12439-.0865 7.35541-.3175c.19468-.19469.3175-1.14653.3175-2.46063s.12282-2.26594.3175-2.46063c.18469-.18468 1.0701-.3175 2.11667-.3175h1.79917v-1.83318c0-2.80261-.41169-2.66473 7.9564-2.66473 3.91866 0 7.14763-.0298 7.17548-.0661.0278-.0364.11714-2.20927.19844-4.82864l.1478-4.7625 4.7625-.1323 4.7625-.13229.0777-2.23577c.0427-1.22967.20614-2.39053.36312-2.57969.38014-.45803 3.92345-.46441 4.54738-.008.38518.28165.44659.69715.3813 2.57969l-.0778 2.24397-2.51354.13229-2.51354.1323-.1323 2.42657c-.0728 1.33462-.21782 2.51156-.32235 2.61542-.22192.22047-.87149.30165-2.7865.3482l-1.38906.0338v4.62091c0 4.29775-.0358 4.64005-.51177 4.89479-.32487.17386-3.90013.27389-9.78959.27389h-9.27781v4.57729c0 3.20734-.095 4.67232-.3175 4.89479-.23511.23511-2.77271.3175-9.77845.3175h-9.46096l-.0773 2.05052-.0773 2.05052-2.57969.0757-2.57968.0757zm-110.10301-2.09122c-.32913-.0876-.47733-.58599-.61681-2.07444-.24832-2.64992-.0983-3.04058 1.16775-3.04058.55446 0 1.14022-.15919 1.3017-.35376.20007-.24107.31574-3.38051.36312-9.85573l.0695-9.50197 4.82864-.0721 4.82865-.0721v-2.22409c0-2.86555.17199-3.05564 2.76462-3.05564 1.33617 0 2.02822.11463 2.24118.37123.1954.23544.27983 1.17906.23083 2.57969l-.0773 2.20845-2.57968.0757-2.57969.0757v2.45104c0 1.55359-.11625 2.5673-.3175 2.76854-.18896.18896-1.09949.3175-2.24896.3175h-1.93146v9.5157c0 9.13709-.0204 9.52658-.51177 9.78958-.48811.26123-6.02467.33889-6.9329.0972zm16.72637-.19459c-.1954-.23544-.27983-1.17906-.23083-2.57969l.0773-2.20845 2.57968-.0757 2.57969-.0757v2.33792c0 1.4656-.11846 2.45638-.3175 2.65541-.46674.46675-4.29273.4229-4.6883-.0537zm5.0058-12.40814c0-5.26521.0861-7.30919.3175-7.54063.18862-.18861 1.09702-.3175 2.23783-.3175h1.92033l.0773-2.05052.0773-2.05052 1.98437-.067c3.31606-.11187 3.17501-.002 3.17501-2.46903 0-3.0655.0767-3.15256 2.77812-3.15256 1.93428 0 2.2667.0679 2.50423.51177.15798.29519.2739 2.41467.2739 5.00818 0 3.73487-.0704 4.56684-.41578 4.91219-.34523.34523-1.17573.41577-4.89479.41577h-4.47902v6.69396c0 4.85364-.0873 6.78125-.3175 7.01146-.20142.20143-1.21708.3175-2.77812.3175h-2.46063zm39.42292 4.87427c0-1.56366.11056-2.436.33073-2.60955.1819-.14338 1.17796-.28449 2.21346-.31358 2.4959-.0701 2.74748.17936 2.74748 2.72442 0 1.13477-.12912 2.04168-.3175 2.23006-.19884.19884-1.18769.3175-2.64584.3175h-2.32833zm39.22224-12.26938.0684-14.61823 9.59114-.0694c5.27513-.0382 9.61874-.0977 9.65246-.13229.0337-.0346.12303-7.80191.19844-17.26077l.13712-17.19792 2.24396-.0778c1.88254-.0653 2.29804-.004 2.57969.3813.26403.36109.33486 4.55876.33168 19.657-.002 11.62579-.10293 19.3544-.25474 19.59474-.21377.33845-1.65452.40802-9.78553.47256l-9.53485.0757v11.57921c0 8.65328-.0802 11.65945-.3175 11.89672-.19888.19889-1.18818.3175-2.64807.3175h-2.33058zm78.3129 9.79924.0721-4.8383h9.525l.0768 2.34127c.0492 1.49869-.0339 2.47468-.23083 2.71198-.21266.25624-.90697.37071-2.24851.37071h-1.94085l-.0773 2.05052-.0773 2.05052-2.5857.0758-2.58569.0758zm-103.09645.16988c-.30262-.30262-.41577-.94551-.41577-2.36235 0-2.63608.20477-2.82153 3.00569-2.7222l2.15368.0764.0768 2.34127c.0492 1.49869-.0339 2.47468-.23083 2.71198-.45351.54644-4.03324.51129-4.5896-.0451zm-19.41-9.65047c-.57554-.23102-.60187-.35858-.52916-2.56292l.0765-2.31979 7.47448-.0703 7.47448-.0703v2.33245c0 1.46135-.11858 2.45103-.3175 2.64995-.38627.38628-13.22611.42326-14.17881.0408zm14.81746-7.85927.0757-2.57969 2.05053-.0773 2.05052-.0773v-1.82206c0-2.49634.2311-2.69608 3.00569-2.59768l2.15368.0764.0768 2.34127c.0492 1.49869-.0339 2.47468-.23083 2.71198-.20926.25214-.88971.37071-2.12735.37071h-1.81969v1.79917c0 1.04657-.13281 1.93197-.3175 2.11666-.19904.19904-1.18982.3175-2.65541.3175h-2.33792zm117.41844.26093c0-1.4656.11846-2.45638.3175-2.65541.43038-.43039 3.94419-.41628 4.53841.0182.38518.28165.44659.69714.3813 2.57968l-.0778 2.24396-2.57969.0757-2.57968.0757zm-182.36407-11.90824c-.27475-.0589-.45739-.33348-.44918-.67522.0244-1.01569 1.47468-4.23733 2.0004-4.44373.27462-.10782 12.37578-.2044 26.89149-.21463l26.39219-.0186v-26.3136c0-18.0781.0883-26.50748.28227-26.93311.19629-.43082.86113-.83893 2.18281-1.33992 2.1791-.82599 2.70576-.87861 2.93057-.29278.0883.23019.1606 13.73528.1606 30.01131 0 26.43264-.044 29.63679-.41193 30.00473-.36853.36852-3.52616.40681-29.96407.36339-16.25367-.0267-29.76049-.0932-30.01515-.14785zm128.65365.0112c-.66455-.25297-.78548-.65612-.7897-2.63252-.003-1.37806.11005-2.01343.41172-2.3151.37262-.37261 3.25632-.41576 27.78125-.41576 17.57967 0 27.36548-.0922 27.36548-.2577 0-.14173-.36306-1.17165-.80681-2.28871-.44374-1.11705-.74261-2.19829-.66415-2.40274.10139-.26422.50691-.34838 1.40211-.29098l1.25947.0808.98089 1.98084c1.25359 2.53152 3.12016 7.26657 3.12016 7.91511 0 .27416-.18833.57075-.41852.65908-.53008.20341-59.10603.17173-59.6419-.0322zm-54.0632-5.53977c-.097-.097-.17639-5.55008-.17639-12.11792 0-8.93508.0799-12.02146.3175-12.25903.18896-.18895 1.09949-.3175 2.24896-.3175h1.93146v-1.83318c0-2.48141.21063-2.66473 3.06161-2.66473h2.23006v-15.42756c0-11.92722.075-15.52899.33073-15.87462.23846-.32234.91364-.49583 2.42015-.62185 1.84804-.15459 2.13077-.11823 2.44739.31477.29251.40003.35798 3.74263.35798 18.27673 0 9.78294-.0723 17.9755-.1606 18.20568-.13817.36005-.8219.41851-4.89479.41851h-4.7342v11.72104c0 8.76359-.0801 11.80116-.3175 12.03855-.33732.33732-4.74333.46013-5.06236.14111zm19.66736-2.15195c0-1.45814.11866-2.44699.3175-2.64583.18469-.18469 1.07009-.3175 2.11667-.3175h1.79917v-1.83318c0-2.44962.2322-2.66474 2.8764-2.66474 1.23766 0 2.17018.12533 2.36235.3175.19217.19217.3175 1.12469.3175 2.36235 0 2.6442-.21512 2.8764-2.66474 2.8764h-1.83318v1.79917c0 1.04658-.13281 1.93198-.3175 2.11667-.19884.19884-1.18769.3175-2.64583.3175h-2.32834zm39.15834-29.13188c0-13.98892.0927-21.74713.26123-21.85125.14368-.0888 1.30453.35066 2.57969.97657l2.31845 1.13802v41.275l-2.57968.0757-2.57969.0757zm-122.86982 16.75639c-.53818-1.40249.51191-3.96527 1.88021-4.58871.41971-.19123 4.32343-.28663 11.72914-.28663h11.10005v-11.12564c0-9.0262.07-11.261.37093-11.84295.70209-1.35769 3.49324-2.38046 4.59225-1.68275.26243.1666.31848 3.3466.26458 15.01105l-.0684 14.79966-14.85366.0683c-13.37312.0615-14.86976.0264-15.01511-.35237zm137.33371.23994c-.097-.097-.17639-1.21537-.17639-2.48524 0-1.86129.0811-2.33997.41851-2.46944.23019-.0883 5.75385-.1606 12.27482-.1606 12.8905 0 12.1775.0837 12.1775-1.42974 0-.68342-1.70814-3.23668-4.85879-7.26273-1.21243-1.5493-2.35953-3.11046-2.54911-3.46926l-.34469-.65235.77016.65235c2.54264 2.15373 9.73612 10.78096 11.7689 14.11461.49953.8192.65271 2.11734.3446 2.92027-.14379.3747-1.7041.41852-14.90486.41852-8.10935 0-14.82364-.0794-14.92065-.17639zm-48.97312-9.76439c-.47266-.47266-.59061-3.92412-.15758-4.61131.18192-.28869.92002-.43293 2.70793-.52916l2.45784-.1323.13229-2.51354.13229-2.51354 2.05052-.0773 2.05052-.0773v-1.96394c0-2.39939.14099-2.51172 3.15257-2.51172 2.46684 0 2.35715.14106 2.46902-3.175l.067-1.98437 2.20846-.0773c1.40062-.049 2.34425.0354 2.57969.23083.29389.24391.37123 1.3191.37123 5.16118 0 4.52732-.0344 4.87147-.51178 5.12698-.29354.1571-2.37598.27389-4.88366.27389h-4.37189l-.0773 2.05052-.0773 2.05052-2.51354.1323-2.51354.13229-.13229 2.45784c-.0962 1.7879-.24047 2.52601-.52917 2.70793-.68719.43302-4.13865.31507-4.61131-.15759zm-29.45763-9.9465c-.19917-.19917-.32689-1.07415-.32689-2.23945 0-2.59789.21174-2.78727 3.00569-2.68819l2.15368.0764v5.02709l-2.25279.0755c-1.52568.0512-2.35831-.03-2.57969-.25136zm29.32115-9.98316c-.15361-.28702-.27929-1.29509-.27929-2.24015 0-2.35399.23589-2.54983 3.07119-2.54983h2.23963l-.0757 2.57969-.0757 2.57968-2.30039.0762c-2.06246.0683-2.32929.0222-2.57969-.44563zm5.27696-9.68477v-4.8948h4.67552c3.81724 0 4.7573-.074 5.12103-.40318.39991-.36191.66969-.35099 2.63523.10669 1.20434.28043 2.29134.67022 2.41554.86621.31843.50245.28907 3.59537-.04 4.21018-.25474.47598-.59704.51177-4.8948.51177h-4.6209v1.93146c0 1.14947-.12854 2.06-.3175 2.24896-.19884.19884-1.18768.3175-2.64583.3175h-2.32833z" transform="translate(457.0399 -189.07871)"/>
    <path style="display:inline;fill:#3f00a3;fill-opacity:1;stroke-width:.264583" d="M-320.15948 437.30663c-5.24494-.54989-13.4577-2.16397-13.82043-2.71619-.29249-.44528-.24138-2.75421.0652-2.94366.1472-.091 1.78431.0757 3.63802.37044 4.20283.66821 9.91832 1.21961 10.46547 1.00965.24885-.0955.44467-.55651.49482-1.16499l.083-1.00696 2.32309-.0766 2.32308-.0766-.0741 3.38385-.0741 3.38386-1.5875.0365c-.87313.02-2.59953-.0697-3.83646-.19933zm15.54427.1483c-.10914-.11325-.19844-1.14112-.19844-2.28415 0-2.49841-.19567-2.36631 4.39346-2.96609 1.76155-.23023 4.38093-.65676 5.82083-.94784 1.79725-.36332 3.67559-.53002 5.99144-.53173l3.37344-.002-.004 1.78594c-.002.98227-.0915 1.9224-.19843 2.08919-.63007.98295-18.42899 3.63462-19.17825 2.85717zm-43.06094-7.09395c-5.96865-2.48684-6.08541-2.56408-6.08541-4.02561 0-.81228.33376-.80841 2.56034.0297.97826.36822 1.93348.61008 2.1227.53747.27923-.10715.34404-5.2382.34404-27.23848 0-14.90855.0723-27.29479.1606-27.52497.21384-.55727 3.85122-.60735 4.30607-.0593.21809.26278.28007 8.2716.23084 29.82815-.0593 25.9514-.11468 29.47738-.46418 29.53974-.21828.0389-1.64703-.45006-3.175-1.08669zm33.1282-2.07528.077-2.19328h4.49792v4.23334l-2.32597.0766-2.32598.0766zm29.42446 1.81537c-.0753-.19634-.10137-1.1786-.0578-2.18281l.0791-1.82584 4.36563-.13229 4.36562-.13229 2.77813-1.26949c2.99772-1.36983 3.43958-1.74008 3.43958-2.88212v-.74318h4.51373l-.074 3.37344-.074 3.37343-1.7198.84796c-3.94121 1.94325-3.86669 1.93017-10.99843 1.93017-5.19463 0-6.50786-.0708-6.61766-.35698zm-43.9167-5.01632c-.0776-.20226-.10551-1.18937-.062-2.19358l.0792-1.82583h4.49791v4.23333l-2.18698.0769c-1.67654.059-2.21992-.009-2.3281-.29084zm19.72863-1.89204v-2.25966h4.51931l-.0768 2.18281-.0768 2.18281-2.18281.0768-2.18281.0768zm-58.09833-3.61939c-3.42845-2.39881-8.92434-6.84747-8.71634-7.05546.0568-.0568 1.15325.64301 2.43657 1.55511 2.53225 1.79979 3.62022 2.26359 4.68373 1.99667l.68695-.17242.0688-12.10031.0688-12.10032 2.18282-.0769 2.18281-.0768v29.12557h-1.01447c-.76074 0-1.40594-.27391-2.57969-1.09515zm72.50095.74893c-.0776-.20226-.10551-1.18937-.062-2.19358l.0791-1.82583h4.49792v4.23333l-2.18699.0769c-1.67654.059-2.21992-.009-2.3281-.29084zm29.51821-1.90274v-2.24896h6.84572l1.80266-1.22768c2.38081-1.62141 4.68414-3.42556 7.79019-6.10189 1.40136-1.20749 2.62175-2.19543 2.71198-2.19543.0902 0 .16404.86915.16404 1.93146 0 1.14946.12854 2.06.3175 2.24895.18475.18476 1.0974.32154 2.18281.32715l1.86531.01-1.5699 1.47926c-1.88435 1.77556-5.6352 4.77366-8.32732 6.65611l-1.95973 1.37033h-11.82326zm-24.28598-5.08236.0766-2.32598h4.23333v4.49792l-2.19327.077-2.19327.077zm-44.39343-2.81194c-.076-.19816-.10264-1.18191-.0591-2.18612l.0791-1.82583 7.13495-.0706c4.44032-.0439 7.2382-.17338 7.40834-.34279.15036-.14972.33291-1.30858.40567-2.57526l.13229-2.30304 2.17229-.0767 2.17228-.0767.0767-2.17229.0767-2.17228 2.32597-.0766 2.32598-.0766-.077 2.19327-.077 2.19328-2.30918.0764-2.30917.0764-.0721 4.81843-.0721 4.81843-9.59818.0694c-7.90204.0572-9.62262.006-9.73644-.29083zm29.36748-.003c-.0753-.19634-.10137-1.1786-.0578-2.18281l.0791-1.82583 2.18281-.0768 2.18281-.0769v4.51932h-2.12497c-1.53924 0-2.16273-.0984-2.26196-.35698zm-91.83289-4.73625c-3.24688-3.38062-8.11068-9.83847-11.50805-15.27969-17.96078-28.76592-21.50663-64.55358-9.56845-96.57292 8.59965-23.0651 25.16877-42.92574 46.51075-55.75031 24.79569-14.89992 54.5637-19.35128 82.82411-12.38509 12.77986 3.15023 24.17248 8.23829 35.32627 15.77706 4.27492 2.88939 8.5061 6.20296 11.10811 8.69909 1.95359 1.8741 1.89568 1.84721-1.69902-.78903-16.07387-11.78806-33.32476-18.60662-53.33432-21.08083-5.29509-.65475-19.15205-.65813-24.34166-.006-5.79909.72879-9.89198 1.47976-14.89916 2.73371-36.24626 9.0772-65.72782 36.41646-77.59279 71.95446-2.43547 7.29471-3.97714 14.2633-5.05769 22.86147-.65219 5.18962-.64881 19.04658.006 24.34167 2.1913 17.7216 7.87051 33.46279 17.23768 47.77807 1.55472 2.37598 4.72042 6.8463 6.02788 8.51204.55835.71134-.0131.27505-1.0396-.79375zm97.01357-9.45885v-9.525h18.78542v4.48927l-7.07761.0705-7.0776.0705-.0706 6.99862c-.0524 5.19429-.15475 7.05204-.39688 7.20584-.17943.11397-1.18943.20905-2.24446.21128l-1.91823.004zm48.94792 2.38125v-7.14375h4.49792v14.2875h-4.49792zm-24.75571 2.03504c-.0776-.20227-.10551-1.18938-.062-2.19358l.0792-1.82584h4.49791v4.23334l-2.18698.0769c-1.67654.059-2.21992-.009-2.3281-.29083zm5.23223-6.98511.0766-2.32597h4.23334v4.49791l-2.19328.077-2.19327.077zm-54.18428-2.81524c-.0754-.19634-.10138-1.17861-.0579-2.18282l.0792-1.82583 2.18281-.0769 2.18281-.0768v4.51931h-2.12497c-1.53924 0-2.16273-.0984-2.26195-.35697zm44.4009-11.88001.0704-7.20989 1.80975-.0788c1.10646-.0482 1.95473.0415 2.18281.23083.30337.25177.37306 1.58346.37306 7.12808 0 7.79413.24491 7.13966-2.67172 7.13966h-1.8347zm-120.12192 2.11667c-.24618-.30315-1.91289-3.85067-1.91289-4.07149 0-.0526 9.64406-.0957 21.43125-.0957h21.43125v4.49792h-20.34052c-15.95279 0-20.39846-.0713-20.60909-.33073zm65.93143-.0263c-.0753-.19634-.10137-1.1786-.0578-2.18281l.0791-1.82583 2.18282-.0769 2.18281-.0768v4.51932h-2.12497c-1.53924 0-2.16273-.0984-2.26196-.35698zm68.68068-1.89198v-2.24896h20.25802c12.06101 0 20.44506-.1001 20.72028-.24739.25424-.13607.91745-1.26896 1.4738-2.51753 1.15094-2.58302 1.16461-2.59123 4.11769-2.47346l1.98125.079-.005 1.98437c-.005 1.77134-.12819 2.25423-1.15113 4.49792-.63029 1.38245-1.26762 2.66237-1.4163 2.84427-.21246.25995-5.16169.33073-23.12438.33073h-22.85407zm-53.78878-2.94468c-.22711-.22711-.25123-13.37908-.0256-13.96701.21506-.56045 3.85148-.60703 4.30945-.0552.21268.25627.28069 2.38052.23084 7.2099l-.0707 6.84659-2.12889.076c-1.17089.0418-2.21268-.008-2.3151-.11024zm14.47921-4.94679c-.0766-.19971-.10373-1.18474-.0602-2.18894l.0791-1.82584 2.29425-.13229c1.26184-.0728 2.39293-.23097 2.51354-.35158.12061-.12061.27882-1.2517.35158-2.51354l.13229-2.29426 2.17228-.0767 2.17229-.0767.0767-2.17228.0767-2.17228 2.29425-.13229c1.26184-.0728 2.39294-.23097 2.51354-.35159.12061-.1206.27882-1.2517.35158-2.51354l.1323-2.29425h4.23333v9.525l-4.8227.0721-4.8227.0721-.0721 4.8227-.0721 4.8227-4.70231.0723c-3.79114.0583-4.72931.002-4.84164-.29083zm44.5232-4.84247c-.1026-.1026-.18655-4.39342-.18655-9.53516v-9.34861h9.26042l-.004 1.91823c-.002 1.05503-.0952 2.06158-.20652 2.23679-.12251.19273-1.0353.34948-2.31106.39687l-2.10858.0783-.13229 7.14375-.13229 7.14375-1.99627.0763c-1.09795.042-2.08022-.008-2.18281-.11024zm-146.65927-4.79262c-.42645-.29444-1.25691-3.9414-.99118-4.35278.1228-.19011.28281-1.41722.35557-2.72691l.13229-2.38125h4.23333v9.525l-1.71979.0682c-.94588.0375-1.85048-.022-2.01022-.13229zm23.88834.0259c-.10025-.10028-.18229-1.11496-.18229-2.25488v-2.07256l2.18282-.004c1.20054-.002 2.32968-.0973 2.50919-.21137.24293-.1543.3444-2.06445.39687-7.47043l.0705-7.26311 2.3151-.0764 2.31511-.0765v-4.47731h24.07708v4.49792h-24.07056l-.0694 9.72343-.0694 9.72344-4.64636.072c-2.55549.0396-4.72838-.01-4.82865-.11024zm19.57652-.003c-.0988-.0988-.17964-1.11231-.17964-2.25223v-2.07256l7.07761-.004c3.98155-.002 7.25121-.11347 7.47448-.25418.28491-.17956.43419-.90618.52916-2.57563l.13229-2.32552 2.18282-.0768 2.18281-.0768v-4.47652h4.49792v4.49792h-4.48598l-.0721 4.82865-.0721 4.82864-9.5438.0694c-5.24909.0382-9.62464-.0115-9.72344-.11024zm88.21096-.19992c-.18929-.22808-.279-1.07636-.23083-2.18281l.0788-1.80977h4.49791l.081 1.57647c.13986 2.72231.0879 2.78915-2.17031 2.78915-1.35259 0-2.04145-.11388-2.25655-.37306zm29.53141.2027c-.10033-.10034-.18242-1.11509-.18242-2.25501v-2.07256h2.09777c1.55428 0 2.20548-.10772 2.51354-.41578.36233-.36233.41577-1.62071.41577-9.78958v-9.37381h9.26042l-.004 1.91823c-.002 1.05502-.0952 2.06158-.20653 2.23678-.1225.19274-1.0353.34949-2.31105.39688l-2.10858.0783-.13229 9.65729-.13229 9.65729-4.51394.0722c-2.48266.0397-4.59602-.01-4.69635-.11024zm29.36272-.006c-.29648-.29649-.15399-7.02199.17563-8.29029l.30944-1.19063h2.51354c3.0646 0 2.96685-.23442 1.99469 4.78335-.99709 5.14645-.82922 4.87394-3.00238 4.87394-.99799 0-1.89391-.0794-1.99092-.17639zm-112.77733-5.2062c-.075-.19552-.10106-1.23732-.0579-2.3151l.0786-1.95962h4.49791l.0781 2.09369c.0558 1.49629-.0197 2.15572-.26459 2.31106-.59719.37884-4.17808.27136-4.33211-.13003zm4.76193-4.76399c-.0754-.19634-.10138-1.1786-.0579-2.18281l.0792-1.82584 1.85208-.0673c3.34345-.12148 3.04271.38232 3.04271-5.09712v-4.75746h9.28182l-.0768 2.18281-.0768 2.18281-2.18282.0769-2.18281.0768v4.5666c0 3.19901-.0951 4.66167-.3175 4.88409-.48213.48213-9.175.44547-9.36109-.0395zm19.57916 0c-.0753-.19634-.10137-1.1786-.0578-2.18281l.0791-1.82584 2.18281-.0768 2.18281-.0769v4.51932h-2.12497c-1.53924 0-2.16273-.0984-2.26196-.35698zm78.47027-1.88128v-2.25966h4.51931l-.0768 2.18281-.0769 2.18282-2.18281.0768-2.18281.0768zm-112.39224-5.09306.0766-2.32597 1.8769-.0769c2.38391-.0977 2.53789.0688 2.43466 2.63212l-.0782 1.9427-2.19327.077-2.19327.077zm117.53518 1.95995c-.0774-.20168-.10536-1.24852-.0621-2.32631l.0786-1.95961 2.19327-.077 2.19327-.077-.0766 2.32597-.0766 2.32597-2.05452.0773c-1.56124.0588-2.08831-.0107-2.19524-.28934zm-78.37708-2.10311.0768-2.18281 2.17228-.0767 2.17229-.0767.0767-2.17228.0767-2.17228 7.18832-.13229c3.95358-.0728 7.28733-.23097 7.40833-.35158.12101-.12061.27955-1.2517.35231-2.51354l.13229-2.29426 2.18882-.0769 2.18882-.0769-.0721 4.83944-.0722 4.83944-9.72344.0694-9.72343.0694v4.4914h-4.51932zm-110.38556-2.84215c-.15987-.29871-.25529-1.283-.21205-2.18731l.0786-1.64421 1.00564-.1625c.5531-.0894 1.11711-.27398 1.25336-.41023.14207-.14207.2774-4.30623.31728-9.76291l.0695-9.51517h8.99583v4.49792l-2.18281.0768c-1.20055.0423-2.20885.1018-2.24068.13229-.0318.0305-.12112 4.40123-.19843 9.71274l-.14058 9.65729-3.22753.0742c-3.0242.0695-3.24585.04-3.5182-.46893zm17.11873.36081c-.10259-.1026-.18654-1.1192-.18654-2.25911v-2.07257h4.51932l-.0769 2.18281-.0768 2.18281-1.99627.0763c-1.09795.042-2.08022-.008-2.18282-.11024zm176.29055-2.08272v-2.24896l.85989-.004c1.67623-.008 1.6492.10339 1.55419-6.39836-.0474-3.24539-.10398-6.49603-.12568-7.22363l-.0394-1.32292 1.5875-.0684c.87312-.0376 1.73465.0279 1.9145.1456.82569.54042 1.86909 17.45618 1.15862 18.7837-.298.55682-.4778.586-3.6116.586h-3.29798zm-171.3882-10.10995.0705-7.08797 2.3151-.0765 2.3151-.0764v-4.47731l2.18282-.004c1.20054-.002 2.32663-.0955 2.5024-.20717.20045-.1274.3484-1.08755.39688-2.57563l.0773-2.37252h4.49792v9.525l-4.82434.0721-4.82433.0721-.0705 7.07166-.0705 7.07165-2.31944.0765-2.31945.0765zm39.41638 4.8953.077-2.19369 1.80976-.0788c2.41641-.10519 2.59735.071 2.50048 2.4352l-.0769 1.87691-2.19369.077-2.19369.077zm39.16693-12.17097.0684-14.36438 9.51148-.0695c7.20519-.0527 9.5619-.14891 9.71939-.39687.11435-.18004.20973-7.92238.21195-17.20522l.004-16.87789 2.18282.0768 2.18281.0768.0679 19.15308c.0494 13.929-.0136 19.25125-.23083 19.51302-.24176.2913-2.10864.35994-9.78864.35994h-9.4899l-.0688 11.9724-.0688 11.9724-2.18509.0769-2.1851.0769zm78.3127 9.77885.0724-4.56407h8.99583v4.49792l-2.24896.13229-2.24896.13229-.0768 2.18282-.0769 2.18281h-4.48901zm-102.95357-.2955c-.20183-.24319-.28942-1.09287-.23977-2.32586l.0782-1.94271 2.19328-.077 2.19327-.077-.0766 2.32598-.0766 2.32597-1.87691.0769c-1.38898.0569-1.95957-.0227-2.19489-.30625zm58.62331.1885c-.0988-.0988-.17964-1.09955-.17964-2.2239 0-1.62002.0869-2.07759.41852-2.20486.23018-.0883 3.56393-.1606 7.40833-.1606 3.8444 0 7.0126-.0298 7.04045-.0661.0279-.0364.11714-2.20928.19844-4.82865l.14781-4.7625h8.99583l.0803 1.71163c.13516 2.88201.13282 2.88492-2.39775 2.97406l-2.18045.0768-.13229 4.7625-.13229 4.7625-9.5438.0694c-5.24909.0382-9.62463-.0115-9.72344-.11025zm-78.31562-9.78853c-.0994-.0994-.18068-1.11335-.18068-2.25326v-2.07257h14.3089l-.0769 2.18281-.0768 2.18282-6.89691.0704c-3.79331.0387-6.97823-.0109-7.07761-.11024zm-44.04607-7.30239.0768-2.18281h4.23334l.0768 2.18281.0769 2.18281h-4.54072zm58.94664-.0555v-2.25966h4.51931l-.0768 2.18282-.0768 2.18281-2.18281.0768-2.18281.0768zm88.16169.0555.0769-2.18281h4.23333l.0769 2.18281.0768 2.18281h-4.54071zm29.36876 0 .0768-2.18281h4.23333l.0768 2.18281.0769 2.18281h-4.54072zm-112.846-2.48134c-.10259-.1026-.18654-1.10646-.18654-2.23081 0-2.38677-.0241-2.36546 2.67778-2.36546h1.84074l-.0764 2.31511-.0764 2.3151-1.99627.0763c-1.09795.042-2.08022-.008-2.18282-.11024zm-69.65213-9.90811c-.12831-.2076.92425-3.68029 1.29608-4.27614.0216-.0346 12.06462-.12393 26.76222-.19844l26.72292-.13545.13545-26.72292c.0745-14.6976.1638-26.73673.19844-26.75362 1.00199-.4885 4.08443-1.42317 4.28489-1.29928.42344.26171.38243 58.92919-.0415 59.35311-.43182.43182-59.09187.46418-59.35851.0327zm128.52059-.0327c-.18809-.18809-.3175-1.0932-.3175-2.22065 0-1.49135.0906-1.9379.41852-2.06375.23018-.0883 12.67221-.1606 27.64896-.1606 26.19778 0 27.23044-.0183 27.23044-.48355 0-.26595-.29765-1.21609-.66146-2.11141-.91595-2.25419-.88425-2.48251.33073-2.38195.94427.0781 1.03523.17157 1.88329 1.9342 1.44092 2.99483 2.98681 7.05097 2.83654 7.44257-.19258.50186-58.86818.54647-59.36952.0451zm-53.90267-5.29413c-.072-.18782-.0999-5.58024-.062-11.98316l.069-11.64167h4.49791v23.8125l-2.18698.0769c-1.5998.0563-2.22215-.0148-2.31798-.26459zm19.77378-1.85197.077-2.19369h4.23333v4.23333l-2.19369.077-2.19368.077zm4.62886-2.49254c-.10242-.10242-.18622-1.11661-.18622-2.25375 0-2.40791.0231-2.42598 2.91858-2.29018l1.71163.0803v4.49792l-2.12888.076c-1.17089.0418-2.21269-.008-2.31511-.11024zm34.4742-26.55636c0-11.78719.0893-21.42366.19844-21.41439.10914.009 1.0914.45576 2.18281.99219l1.98438.97532.0678 20.43907.0678 20.43906h-4.50118zm-122.76667 15.63099c0-.76638.22836-1.33722.87322-2.18282l.87322-1.14505 11.36376-.13229 11.36376-.13229.13229-11.36376.13229-11.36376 1.14505-.87322c.8456-.64486 1.41644-.87322 2.18281-.87322h1.03777v29.10417h-29.10417zm137.3742-1.14505.0769-2.18282 12.02461-.0689c9.21602-.0528 12.07327-.14549 12.23293-.39688.30592-.48169.26101-1.73277-.086-2.39591-.16634-.31785-1.01281-1.567-1.88104-2.77587-.86824-1.20888-1.53331-2.24326-1.47793-2.29864.16949-.16949 4.32486 4.86987 6.29765 7.63738 1.53709 2.15629 1.86166 2.79056 1.86166 3.63802v1.0264h-29.12556zm-49.15225-7.68691c-.0773-.20144-.10519-1.24809-.062-2.32587l.0786-1.95962h4.49791v4.49792l-2.18698.0769c-1.67248.0588-2.22005-.009-2.32753-.28934zm-19.69486-2.02552c0-2.44334-.12529-2.34216 3.0427-2.45726l1.85209-.0673.13229-15.52236c.0728-8.5373.2313-15.62152.35232-15.74271.12101-.12119 1.13305-.22035 2.24896-.22035h2.02893v35.98333l-4.82865.0721-4.82864.0721zm24.87083-5.17039v-2.24895h4.47731l.0765-2.31511.0764-2.3151 2.37252-.0773c1.48808-.0485 2.44823-.19642 2.57563-.39687.11172-.17578.20495-1.30667.20717-2.51311l.004-2.19351 2.18281.0769 2.18282.0768v9.525l-4.82865.0721-4.82865.0721v4.48598h-4.49791v-2.24896zm-34.48403-2.68993c-.097-.097-.17639-1.03677-.17639-2.08836 0-2.23655-.004-2.23316 2.66748-2.23316h1.83044v4.49791h-2.07257c-1.13991 0-2.15195-.0794-2.24896-.17639zm29.36875-9.78958c-.097-.097-.17639-1.03678-.17639-2.08836 0-2.23655-.004-2.23317 2.66748-2.23317h1.83044v4.49792h-2.07257c-1.13991 0-2.15194-.0794-2.24896-.17639zm5.11528-9.4702v-4.64091h4.51531c2.70107 0 4.72785-.11375 5.04428-.2831.39406-.21089 1.03259-.16436 2.50369.18245 2.23384.52663 2.30951.63195 2.17371 3.02521l-.0818 1.44106-4.7625.14781c-2.61938.0813-4.78745.17059-4.81795.19844-.0305.0279-.09 1.03289-.13229 2.23344l-.0768 2.18281-2.18282.0768-2.18281.0768z" transform="translate(457.0399 -189.07871)"/>
  </g>
  <g style="display:inline" transform="translate(11.74596 7.21379) scale(.26458)">
    <path style="display:inline;opacity:.541;fill:none;stroke:#ffca8c;stroke-width:68;stroke-miterlimit:4;stroke-dasharray:none;stroke-opacity:1;filter:url(#i)" d="M272.41406 651.78125c100.22291-.17421 196.28209-40.10661 267.09317-111.0323 70.81108-70.92569 110.58807-167.04933 110.60019-267.27239-.00384-100.22847-39.77718-196.36014-110.58915-267.29258-70.81197-70.93245-166.87589-110.86914-267.10421-111.04336" transform="translate(216.01302 236.58456)"/>
    <path style="display:inline;opacity:.541;fill:none;stroke:#020100;stroke-width:68;stroke-miterlimit:4;stroke-dasharray:none;stroke-opacity:.653195;filter:url(#j)" d="M661.77341 581.35832c100.22291-.17421 196.28209-40.10661 267.09317-111.0323 70.81108-70.92569 110.58812-167.04933 110.60022-267.27239-.0039-100.22847-39.77721-196.36014-110.58918-267.29258-70.81197-70.93245-166.87589-110.86914-267.10421-111.04336" transform="matrix(-1 0 0 1 1165.8348 308.14194)"/>
    <circle style="display:inline;opacity:.998077;fill:none;stroke:url(#k);stroke-width:68;stroke-miterlimit:4;stroke-dasharray:none;stroke-opacity:1" cx="494.49637" cy="510.48914" r="378.35101"/>
    <g style="display:inline;fill:#ffba26;fill-opacity:1;filter:url(#l)" transform="matrix(1.7738 0 0 1.76946 -708.13469 703.43019)">
      <g style="fill:url(#m);fill-opacity:1" transform="translate(489.92398 -358.20516) scale(1.34753)">
        <path style="fill:url(#n);fill-opacity:1;stroke-width:.666667" d="M148.66465 207.59069v-63c5.88666.11685 7.68149.2566 13.31189.45614.0231 18.07784.0685 36.46603.0916 54.54386 7.46332-10.5699 20.04918-18.82312 33.40926-15.81765 14.48282 1.01265 24.64618 16.9049 23.47167 30.71594l.47509 56.10171c-4.20819-.52271-10.49536 1.03356-13.4262-.7665-.30505-17.57018.61644-35.21695-.47682-52.73789-.10079-12.01795-8.58176-25.04935-22.06123-22.2331-15.24005 1.37727-22.6871 18.39152-21.4619 32.21421v43.52325c-4.17157-.52838-10.43986 1.03997-13.33333-.7665l-.00007-62.23347z"/>
        <path style="fill:url(#o);fill-opacity:1;stroke-width:.666667" d="M79.64063 151.02344c-8.32248.0936-16.6787.57284-24.97657.23437v119.33203h14.66797v-44.66601c16.01847-.0245 34.1357.68973 46.63672-11.09766 9.4023-6.81703 11.67559-19.05213 12.15625-30-.29339-13.87155-10.07544-27.9478-23.70508-31.72265-8.16682-1.88232-16.45682-2.1737-24.7793-2.08008zm6.81835 12.13672c8.87797-.11141 16.60738 1.01601 22.09766 7.17773 7.19947 8.07994 8.06629 23.76623 1.57813 32.42773-8.38751 11.1971-23.46405 9.77232-40.80274 9.82422-.03935-16.23786-.0048-27.84046.14063-48.71289 5.9199-.13812 11.65955-.64995 16.98632-.71679z"/>
      </g>
      <path style="fill:url(#p);fill-opacity:1;stroke-width:.497997" d="M781.38505-234.9898c.22582.45187 2.40711 6.13809 4.84734 12.63602 2.44022 6.49793 4.66081 11.74459 4.93465 11.65924.27384-.0854.93737-1.25682 1.47451-2.60326.83238-2.08651.97356-3.6339.95584-10.47682l-.0208-8.02873 2.97767-.31109 4.57591-.31111h1.59825l.31753 3.36082c1.13982 12.06403-1.06022 21.29333-6.29748 26.41838l-2.19271 2.14571 5.9056 15.50096c3.24807 8.52553 5.78515 15.73099 5.52811 15.829l-7.77751 2.96591c-.38595.14718-2.61137-5.14317-5.79913-13.56779-2.82363-7.46229-5.30403-13.76101-5.51203-13.99716-.64939-.73731-3.38522 3.63039-3.80327 6.07184-.53659 3.13375-.287 10.30153.54905 15.76726.37699 2.4646.63001 4.54278.56227 4.61817l-9.06939 1.43392c-.28942.0457-1.54152-9.69989-1.90211-13.53219-.43961-4.67204.5083-11.24422 2.11528-14.66602.72071-1.53464 2.76107-4.28849 4.61903-6.23422l3.32805-3.48531-5.4179-14.1529c-2.97986-7.78409-5.24424-14.31708-5.03197-14.51774.21227-.20067 2.12715-1.03526 4.25529-1.85467 3.48251-1.34087 3.91039-1.40768 4.2799-.66822z"/>
    </g>
    <g transform="translate(183.80027 -41.06123) scale(.35456)" style="filter:url(#q)">
      <path style="fill:url(#r);fill-opacity:1;stroke:#1f0938;stroke-width:1.17031;stroke-opacity:.364706" d="M621.03818 1215.2985c9.24879-2.0738 23.91789-8.4777 46.08239-20.119 58.85093-30.91 102.10471-66.6335 130.40422-107.7016 10.04274-14.5741 14.25752-23.6023 15.63635-33.4943 1.73832-12.4711-4.40708-21.4098-16.0776-23.3853-9.28383-1.5717-17.37754 1.6411-26.9238 10.6871-8.74962 8.2912-14.1749 15.758-24.08925 33.1543-14.1034 24.7466-26.35599 42.3229-40.47062 58.0547-13.47201 15.0155-42.56313 41.9368-58.27779 53.931-20.97986 16.0127-32.71045 25.7419-34.13728 28.3131-1.41087 2.5425-1.09152 2.5653 7.85338.56z"/>
      <path style="fill:url(#s);fill-opacity:1;stroke-width:.96999" d="M575.31625 764.90533c-10.61851-.79219-16.29301 1.41034-21.03041 8.16313-2.97819 4.24524-3.18655 5.05521-3.69952 14.36601-.48344 8.77402-.10175 12.07758 3.44427 29.82046l3.9876 19.95307-1.74348 29.36879c-1.73092 29.14461-1.76526 29.41243-4.49187 35.06861-2.21097 4.58592-2.79784 7.13685-3.00428 13.0548-.14112 4.04538-.67253 17.40092-1.18038 29.67872-1.05012 25.38883-.89519 27.8283 2.1952 34.66468 4.88408 10.80455 17.50687 20.33954 36.94095 27.9005 22.50216 8.7547 31.05373 12.5279 43.02283 18.9882 25.91861 13.9896 47.26065 29.7507 62.60103 46.2296 14.36852 15.4347 22.92785 22.7487 26.96091 23.0416.84253.06 2.24242-1.3615 3.11254-3.1616 5.35142-11.0704 9.37537-49.295 7.12086-67.6492-1.45327-11.8305-3.9588-24.88456-7.31422-38.11075-10.09839-39.80484-40.73125-117.71328-58.90835-149.82152-24.14239-42.64478-56.84226-69.2296-88.01371-71.5551zm1.29936 22.36768c4.51379.4737 11.51395 4.24886 19.87947 10.96168 23.35928 18.74478 58.50849 65.5019 57.81728 76.91206-.10327 1.70315-.52345 1.88592-2.71453 1.17585-1.42581-.46199-5.08777-2.34309-8.13831-4.17973-13.3483-8.03659-37.28413-28.24572-49.18706-41.52837-13.07563-14.59115-24.5823-35.00577-22.85516-40.55041.67649-2.172 2.49005-3.0753 5.19831-2.79108zm13.3264 64.59001c4.6837.30314 10.27425 4.38992 16.54779 12.1581 6.74064 8.34668 14.07661 21.0976 17.96817 31.22797 5.86735 15.27365.39583 24.19792-10.66146 17.38814-6.50731-4.00764-25.27145-29.74775-30.8105-42.26458-2.97365-6.71955-2.49904-13.54478 1.15194-16.56714 1.73358-1.43517 3.67517-2.08045 5.80406-1.94249zm62.62517 42.91857c4.51104.32743 7.48494 2.38695 12.95411 8.97478 14.99208 18.05866 33.29378 65.4348 40.5737 105.02713 3.89771 21.1979 4.98827 46.5715 1.99211 46.3542-.20572-.012-2.24106-3.1491-4.52288-6.9649-12.53639-20.9624-33.78031-55.40668-38.88213-63.04225-18.01904-26.96737-25.01996-46.37356-24.04207-66.63509.72031-14.92067 5.38148-24.18891 11.92705-23.71379zm-68.63143 15.47505c6.75795.53284 17.84799 7.65172 30.87925 20.58581 11.36636 11.28155 21.65906 29.55245 22.64041 40.19103.35839 3.88549.22598 4.19496-1.73801 4.05237-1.16959-.0844-3.86648-.81757-5.99328-1.62752-5.75474-2.19151-21.08999-11.47997-28.6387-17.34698-14.38537-11.18029-23.78121-25.73943-24.16923-37.45229-.2004-6.04776 2.3956-8.76698 7.01956-8.40242zm-4.86128 53.87195c13.35417.88199 39.99107 16.26076 61.58811 36.51591 8.32454 7.8075 8.4018 8.1601.88403 4.0008-3.89739-2.1561-10.43575-5.27258-14.52946-6.92485-4.09371-1.65228-12.73418-4.54078-19.20098-6.41913-19.47119-5.65575-29.36788-10.6766-34.48705-17.49292-3.14443-4.1872-3.20153-6.75913-.19121-8.61683 1.44555-.89201 3.46352-1.22636 5.93656-1.06298z"/>
      <path style="fill:url(#t);fill-opacity:1" d="M564.46673 1015.1137c-27.53711-2.2618-32.03169-.6993-42.38278 14.7436-5.87301 8.7623-5.30452 8.332-25.52456 19.3826-19.65682 10.7428-23.31446 18.1356-18.418 37.232 3.22826 12.5905 2.43392 17.9656-4.47004 30.2336-4.3488 7.7275-5.2218 10.1135-5.70482 15.5983-1.28238 14.5585 8.02144 26.2439 26.0694 32.745 6.65575 2.3976 26.53572 4.683 37.64493 4.3284 32.95223-1.0517 71.95876-7.3258 98.35567-15.8225 31.80567-10.2374 65.93787-28.7252 74.79049-40.5106 8.43625-11.2312 3.42542-20.7665-23.3556-44.4464-24.41927-21.5913-53.10812-37.5526-86.94154-48.371-9.93239-3.1759-13.15978-3.7247-30.06315-5.113zm-14.17964 27.2602c11.18879.7002 25.86994 4.6153 37.85021 10.4419 6.06997 2.9522 13.44094 6.3526 16.38025 7.5555 7.08513 2.8998 7.25239 3.0563 4.80428 4.4971-6.18368 3.6393-25.72211 3.5087-40.36845-.2691-15.1788-3.9152-29.27724-11.1851-32.26166-16.6352-1.74149-3.1804-.9566-4.247 3.80114-5.171 2.72432-.5291 6.06461-.6525 9.79423-.4192zm-31.0577 32.0456c4.17012.3406 9.59328 1.9637 18.69543 5.3136 12.3796 4.5558 23.93448 7.82 29.62501 8.3677 2.27901.2194 4.96774.7999 5.97537 1.2903 1.5967.7772 1.31535 1.1435-2.18924 2.8537-5.48959 2.6788-20.09829 6.2164-28.0638 6.7951-8.77183.6373-23.36788-1.2343-29.01568-3.7193-2.63359-1.1587-5.7414-3.5737-7.32326-5.6917-4.79717-6.4235-2.59662-12.1181 5.61831-14.5315 2.12368-.6274 4.17578-.8818 6.67786-.6779zm124.91385 15.9485c3.79921.3401 7.64657.8379 11.50975 1.4937 23.58208 4.0035 31.05305 8.2112 27.37561 15.4194-1.9477 3.8174-8.89034 7.4319-21.82501 11.3625-18.33105 5.5705-36.36658 9.1412-51.57877 10.2103-7.13643.5014-19.95144-1.6689-23.77382-4.027-14.55798-8.9812-8.36506-22.0864 14.2571-30.1674 12.01162-4.2907 27.57135-5.7653 44.03514-4.2915zm-126.99893 34.1351c8.22924.533 16.79133 3.9105 33.82976 12.7428 9.46553 4.9068 20.18159 9.7316 23.81151 10.7227 3.63001.9911 6.57662 2.0849 6.54932 2.4292-.0762.9621-17.92368 3.5727-26.38721 3.8597-10.78112.3657-28.09603-1.9234-37.34016-4.9353-28.01151-9.1263-31.45551-22.8633-6.20814-24.7649 1.96357-.1478 3.84599-.1771 5.74492-.054z"/>
      <path style="fill:url(#u);fill-opacity:1" d="M723.87513 718.17617c-9.97586-.73556-17.82216 4.07924-23.8745 14.49774-4.42036 7.60931-5.42676 19.93308-2.93113 35.88134 2.42342 15.48544 1.22264 24.08057-5.40522 38.67312-3.7144 8.17795-4.76249 11.6661-5.42901 18.0896-.87614 8.44593-.43734 10.16391 6.94426 27.22339 1.36689 3.15878 4.37075 13.53178 6.67463 23.05223 3.07821 12.71953 5.48427 19.989 9.0766 27.4133 8.14526 16.83437 19.54006 58.81022 25.17144 92.72953 3.74533 22.55838 4.50608 33.66668 3.65473 53.32738l-.67953 15.7087 5.21067-6.0618c35.52867-41.3337 59.75324-115.4215 60.48194-184.96882.78229-74.67234-19.22823-125.33077-58.56453-148.25868-7.59218-4.42518-14.34479-6.86565-20.33035-7.30703zm7.26974 37.35079c5.78837.51561 12.69617 9.05013 20.56541 25.40702 14.3484 29.82449 17.53154 49.65884 9.10057 56.71076-4.31322 3.60764-6.87854 3.02223-11.38066-2.60001-4.38834-5.48024-7.36137-12.92394-14.99844-37.56074-5.98202-19.29768-7.7207-27.75306-7.11259-34.5798.51804-5.81658 1.43734-7.58995 3.82571-7.37723zm-13.70179 64.03692c5.34696.47617 11.74917 10.96926 14.20522 23.28369 1.58835 7.96373-.34905 27.14449-2.72035 26.93334-.374-.0325-1.08785-1.60353-1.5855-3.48848-.49767-1.8849-3.00112-8.31992-5.56387-14.29998-4.94316-11.53426-9.24091-24.57626-8.99794-27.30433.25596-2.87371 2.47983-5.31863 4.66244-5.12424zm44.65139 40.3685c7.3411.36412 12.45411 10.66151 14.65992 29.78124 3.02179 26.19314-3.06273 67.33468-15.59367 105.42092-2.73565 8.31506-5.27902 16.12556-5.65005 17.35806-.37096 1.2326-.87208 2.0032-1.11496 1.7127-.24312-.2906.51415-5.0977 1.68295-10.6837 1.16881-5.58588 2.63111-16.04281 3.25005-23.23681 1.78157-20.70719.81817-32.55627-5.07934-62.47229-4.2671-21.64613-5.12226-29.39667-4.33155-39.25394.82881-10.33124 3.8993-16.6045 8.89521-18.17105 1.13767-.3568 2.23301-.50697 3.28178-.4549z"/>
    </g>
  </g>
</svg>
