<?xml version="1.0" encoding="UTF-8" standalone="no"?>
<svg
   version="1.1"
   viewBox="0 0 88.20617172280936 96.81143627460011"
   width="88.20617172280936"
   height="96.81143627460011"
   id="svg30"
   xmlns="http://www.w3.org/2000/svg"
   xmlns:svg="http://www.w3.org/2000/svg">
  <!-- svg-source:excalidraw -->
  <defs
     id="defs4">
    <style
       id="style2">
      @font-face {
        font-family: &quot;Virgil&quot;;
        src: url(&quot;https://ipfs.safewatch.tk/ipfs/Qmagw2cxk6JFSRSbxRtVQzfYqFFCxT8Zck4uThKQM7i9EM/Virgil.woff2&quot;);
      }
    </style>
  </defs>
  <rect
     x="0"
     y="0"
     width="88.20617172280936"
     height="96.81143627460011"
     fill="#ffffff"
     id="rect6" />
  <g
     stroke-linecap="round"
     transform="translate(10 10) rotate(0 31.363636363636346 38.18181818181813)"
     id="g12">
    <path
       d="M11.81 8.94 C11.81 8.94, 11.81 8.94, 11.81 8.94 M11.81 8.94 C11.81 8.94, 11.81 8.94, 11.81 8.94 M0.94 24.66 C8.65 20.04, 12.96 12.74, 20.18 3.61 M2.53 26.05 C9.26 17.16, 17.78 8.47, 21.39 3.62 M2.15 30.7 C11.19 24.76, 17.29 17.46, 31.62 1.25 M1.57 32.9 C11.7 21.2, 20.88 9.53, 29.74 -0.14 M4.63 35.21 C12.7 25.53, 28.37 10.76, 35.13 0.37 M3.13 36.5 C9.98 28.44, 17.57 20.1, 34.83 1.75 M3.34 42.7 C12.12 33.97, 17.85 26.43, 37.83 3.93 M3.01 43.03 C14.2 31.9, 22.96 20.33, 37.57 2.79 M5.36 49.21 C14.11 37.66, 27.17 24.67, 42.32 4.63 M3.34 48.75 C18.93 32.66, 31.61 16.05, 41.09 4.71 M4.73 53.04 C13.23 44.32, 25.5 31.61, 46.19 6.6 M2.68 55.85 C13.11 42.45, 24.06 31.69, 46.5 7.39 M4.57 56.88 C13.84 47.96, 26.53 37.51, 49.41 10.32 M6.41 58.88 C21.89 38.75, 37.68 20.89, 49.62 8.96 M9.99 61.29 C22.07 44.99, 36.29 31.12, 51.25 13.33 M8.96 61.45 C21.98 45.24, 37.33 29.47, 52.06 12.73 M9.48 63.14 C22.37 53.01, 32.59 38.49, 54.27 14.38 M11.45 64.85 C20.79 53.31, 30.03 42.75, 54.65 14.59 M15.07 68.76 C26 54.69, 38.05 40.46, 58.64 17.15 M13.12 68.42 C23.25 56.51, 32.62 46.05, 57.9 16.96 M15.16 70.17 C32.2 53.19, 50.49 31.9, 58.15 22.44 M16.48 72.03 C31.34 53.22, 48.73 32.8, 59.38 22.11 M19.28 72.98 C35.25 52.86, 51.26 36.48, 63.11 22.57 M19.32 73.16 C29.25 62.76, 37.66 52.19, 62.86 22.89 M25.67 74.59 C36.4 61.44, 46.34 49, 63.15 28.13 M24.6 73.39 C36.88 57.76, 50.65 43.89, 62.41 28.63 M27.37 74.66 C39.63 64.19, 48.12 51.94, 61.95 36.84 M29.79 74 C41.98 61.44, 52.97 46.58, 63.41 34.25 M35.01 77.01 C39.85 69.03, 48.18 59.98, 63.47 41.54 M33.95 76.12 C44.44 61.67, 55.95 49.26, 64.04 41.46 M40.91 70.28 C48.76 62.12, 58.03 55.64, 62.76 48.12 M41.11 72.63 C47.73 64.48, 54.94 56.39, 62.41 46.88 M49.25 68.83 C53.74 65.16, 54.52 61.85, 57.63 60.73 M50.16 69.11 C52.26 65.72, 55.42 63.46, 57.53 59.4"
       stroke="#868e96"
       stroke-width="0.5"
       fill="none"
       id="path8" />
    <path
       d="M28.48 -0.48 C34.06 -1.35, 41.36 2.49, 46.7 6.33 C52.04 10.18, 57.94 16.07, 60.53 22.61 C63.13 29.15, 63.63 38.09, 62.26 45.58 C60.9 53.08, 57.16 62.64, 52.34 67.59 C47.52 72.54, 39.52 74.65, 33.33 75.29 C27.15 75.93, 20.36 74.99, 15.22 71.43 C10.09 67.87, 5.02 60.84, 2.51 53.93 C0.01 47.02, -1.32 37.44, 0.19 29.98 C1.71 22.52, 5.91 14.03, 11.59 9.18 C17.27 4.33, 29.6 2.11, 34.29 0.89 C38.99 -0.34, 39.83 1.17, 39.76 1.83 M20.98 2.22 C26.46 -0.84, 33.81 -1.24, 39.57 0.88 C45.34 2.99, 51.57 9.03, 55.58 14.93 C59.59 20.83, 63.26 29.2, 63.61 36.27 C63.97 43.35, 60.97 51.33, 57.7 57.38 C54.44 63.42, 49.75 69.63, 44.02 72.55 C38.29 75.46, 29.58 76.56, 23.3 74.86 C17.03 73.17, 10.18 68.04, 6.36 62.41 C2.54 56.77, 0.4 48.51, 0.4 41.05 C0.4 33.6, 3.25 24.1, 6.35 17.69 C9.44 11.28, 16.66 5.01, 18.96 2.59 C21.26 0.18, 19.58 2.57, 20.13 3.21"
       stroke="#000000"
       stroke-width="1"
       fill="none"
       id="path10" />
  </g>
  <g
     stroke-linecap="round"
     transform="rotate(90.674037,33.068855,44.270853)"
     id="g18">
    <path
       d="m 46.14,1.31 c 7.05,0.54 14.53,3.74 19.53,8.09 5,4.35 9.7,12.14 10.47,18.01 0.76,5.87 -2.19,12.1 -5.86,17.2 -3.67,5.1 -9.71826,9.628049 -16.43826,12.158049 C 47.11174,59.308049 37.16,61.03 29.91,59.82 22.66,58.61 15.57,55.19 10.58,50.78 5.59,46.38 0.95,39.49 -0.01,33.39 -0.98,27.29 0.98,19.41 4.8,14.17 8.61,8.93 15.19,3.91 22.88,1.94 c 7.7,-1.97 22.33,-0.02 28.06,0.41 5.73,0.43 6.47,1.89 6.33,2.16 M 41.240555,-0.13104669 C 48.398722,-0.83280041 57.08,2.28 62.7,6.08 c 5.61,3.8 10.3,11.31 12.02,17.09 1.71,5.78 1.1,12.26 -1.74,17.6 -2.84,5.35 -8.82,11.43 -15.3,14.48 -6.47,3.04 -16.11,4.43 -23.56,3.8 C 26.67,58.42 18.32,55.08 13,51.46 7.68,47.84 3.84,42.62 2.22,37.33 0.61,32.04 0.39,25.15 3.32,19.72 6.24,14.3 13.34,7.79 19.78,4.77 26.22,1.75 32.14428,0.02589273 36.11148,0.02698731 c 3.5,-0.8 4.056431,-0.03218113 4.67852,-0.10698731"
       stroke="none"
       stroke-width="0"
       fill="#ced4da"
       id="path14" />
    <path
       d="m 45.76,0.14 c 7.25,0.95 16.7,6.05 21.55,10.67 4.85,4.62 7.27,11.2 7.55,17.05 0.27,5.84 -2.25,13.2 -5.89,18.02 C 65.32,50.69 59.81,54.56 53,56.76 46.2,58.97 35.38,60.29 28.13,59.08 20.89,57.88 14.09,54.06 9.53,49.53 4.97,45 1.41,37.59 0.77,31.9 0.12,26.2 2,20.22 5.68,15.35 9.36,10.48 15.23,4.85 22.85,2.69 30.47,0.54 46.17,2.21 51.39,2.43 c 5.22,0.21 2.98,1.31 2.8,1.56 M 26.09,1.61 c 6.55,-2.23 16.1,-2.09 23.32,-0.09 7.22,1.99 15.62,7.27 20,12.06 4.39,4.8 6.79,10.79 6.31,16.72 -0.48,5.94 -4.51,14.18 -9.17,18.89 C 61.89,53.9 54.62,57.14 47.76,58.56 40.91,59.98 32.2,59.52 25.41,57.72 18.62,55.91 11.12,52.17 7,47.72 2.88,43.28 0.58,37.15 0.68,31.04 c 0.1,-6.1 2.63,-15 6.92,-19.96 4.3,-4.95 15.69,-8.46 18.86,-9.79 3.16,-1.32 -0.1,1.57 0.13,1.84"
       stroke="transparent"
       stroke-width="1"
       fill="none"
       id="path16" />
  </g>
  <g
     stroke-linecap="round"
     transform="translate(10.472221908534038 18.978184077969672) rotate(90.67403689798466 37.721485159377195 30.011260604112408)"
     id="g24">
    <path
       d="M5.61 15.48 C5.61 15.48, 5.61 15.48, 5.61 15.48 M5.61 15.48 C5.61 15.48, 5.61 15.48, 5.61 15.48 M3.89 24.81 C8.77 17.11, 13.65 10.78, 21.64 5.1 M2.52 24.3 C8.18 18.84, 12.5 13.2, 19.45 5.07 M2.83 33.57 C7.3 28.32, 14.58 20.44, 26 7.63 M1.1 33.13 C7.27 24.96, 15.01 16.24, 25.59 6.49 M0.94 38.92 C13.82 27.35, 22.26 14.6, 29.75 5.91 M2.73 36.5 C11.63 26.85, 20.75 17.56, 30.13 5.24 M7.07 39.79 C17.56 26.83, 28.94 13.64, 36.54 2.13 M5.55 40.63 C12.25 31.59, 20.69 21.77, 36.58 3.6 M5.98 45.92 C16.19 35.73, 23.68 25.01, 44.56 3.5 M7.67 44.8 C13.55 36.2, 20.92 27.51, 42.54 2.06 M7.12 50.12 C19.05 37.89, 30.01 24.71, 47.44 3.23 M8.19 47.68 C21.24 34.65, 33.3 22.14, 47.9 3.41 M9.48 52.65 C23.19 41.73, 32.21 30.22, 54.28 4.94 M11.36 51.03 C27.47 32.32, 43.72 14.68, 53.17 3.47 M14.44 53.45 C30.83 36.72, 46.52 17.81, 57.22 4.1 M13.68 54.11 C30.35 36.59, 46.35 18.48, 56.27 5.68 M18.56 56.59 C27.31 44.51, 37.61 33.71, 58.85 5.73 M18.03 55.34 C28.96 42.52, 41.83 28.44, 60.29 7.04 M21.7 58.67 C31.24 46.72, 45.06 31.57, 62.41 7.34 M21.99 56.94 C35.54 41.66, 50.52 24.84, 64.96 8.27 M24.53 60.52 C35.07 48.57, 43.59 39.04, 69.91 9.58 M24.71 59.84 C35.88 45.9, 46.96 35.14, 69.01 10.7 M29.98 58.64 C43.58 45.16, 56.99 29.15, 68.35 15.77 M30.58 61.32 C45.01 43.96, 60.62 25.02, 69.69 14.97 M37.41 60.12 C49.89 44.31, 61.32 29.2, 72.38 16.71 M34.7 59.21 C47.01 47.07, 57.42 33.83, 71.72 18.09 M41.45 61.15 C48.81 50.53, 57.69 41.48, 74.55 22.71 M42.04 60.51 C47.81 51.48, 55.47 42.63, 72.85 22.7 M46.08 61.34 C56.58 49.28, 65.82 37.73, 77.45 28 M46.73 59.06 C57.52 47.09, 69.11 34.67, 76.22 25.66 M52.14 57.51 C61.86 50.88, 67.46 42.48, 77.86 31.92 M51.94 59.44 C61.72 48.45, 70.3 37.26, 77.82 30.49"
       stroke="#868e96"
       stroke-width="0.5"
       fill="none"
       id="path20" />
    <path
       d="M22.42 3.33 C28.76 0.83, 39.33 -0.68, 46.69 0.33 C54.05 1.34, 61.76 4.76, 66.57 9.41 C71.39 14.06, 75.17 22.35, 75.58 28.22 C75.99 34.09, 72.95 39.67, 69.06 44.64 C65.16 49.62, 58.88 55.55, 52.22 58.09 C45.55 60.62, 36.34 61.25, 29.07 59.87 C21.8 58.49, 13.27 54.43, 8.6 49.82 C3.93 45.21, 1.53 37.98, 1.07 32.21 C0.6 26.45, 1.11 20.48, 5.82 15.23 C10.53 9.99, 24.48 2.99, 29.31 0.72 C34.15 -1.54, 34.91 1.24, 34.83 1.65 M33.52 -0.16 C40.25 -1.01, 49.52 1.76, 56.08 4.74 C62.65 7.72, 69.81 12.77, 72.91 17.72 C76.01 22.66, 76.05 28.9, 74.67 34.42 C73.29 39.93, 70.04 46.64, 64.61 50.83 C59.17 55.02, 49.75 58.66, 42.07 59.57 C34.4 60.47, 24.95 58.96, 18.57 56.25 C12.2 53.53, 6.57 48.59, 3.82 43.27 C1.07 37.94, 0.88 30.2, 2.09 24.31 C3.31 18.43, 5.91 12, 11.09 7.97 C16.28 3.93, 29.29 1.25, 33.2 0.11 C37.11 -1.04, 34.68 0.51, 34.55 1.08"
       stroke="#000000"
       stroke-width="1"
       fill="none"
       id="path22" />
  </g>
  <g
     transform="translate(29.103086,36.405718)"
     id="g28">
    <text
       x="0"
       y="18"
       font-family="Virgil, 'Segoe UI Emoji'"
       font-size="20px"
       fill="#000000"
       text-anchor="start"
       style="font-style:normal;font-variant:normal;font-weight:normal;font-stretch:normal;font-size:20px;font-family:'Virgil 3 YOFF';-inkscape-font-specification:'Virgil 3 YOFF, Normal';font-variant-ligatures:normal;font-variant-caps:normal;font-variant-numeric:normal;font-variant-east-asian:normal;direction:ltr;text-anchor:start;white-space:pre;fill:#000000"
       direction="ltr"
       id="text26">HPT</text>
  </g>
</svg>
