<?xml version="1.0" encoding="UTF-8" standalone="no"?>
<!-- Created with Inkscape (http://www.inkscape.org/) -->

<svg
   width="150.64044mm"
   height="150.80873mm"
   viewBox="0 0 150.64044 150.80873"
   version="1.1"
   id="svg28607"
   xmlns:xlink="http://www.w3.org/1999/xlink"
   xmlns="http://www.w3.org/2000/svg"
   xmlns:svg="http://www.w3.org/2000/svg">
  <defs
     id="defs28604">
    <linearGradient
       id="linearGradient2127">
      <stop
         style="stop-color:#008080;stop-opacity:1"
         offset="0"
         id="stop2123" />
      <stop
         style="stop-color:#00ffff;stop-opacity:1"
         offset="1"
         id="stop2125" />
    </linearGradient>
    <linearGradient
       xlink:href="#linearGradient23369"
       id="linearGradient23371"
       x1="294.14886"
       y1="392.00464"
       x2="296.08844"
       y2="252.33362"
       gradientUnits="userSpaceOnUse"
       gradientTransform="matrix(0.35741639,0,0,0.35741639,-49.31912,-62.778296)" />
    <linearGradient
       id="linearGradient23369">
      <stop
         style="stop-color:#00ffff;stop-opacity:1"
         offset="0"
         id="stop23365" />
      <stop
         style="stop-color:#260e58;stop-opacity:1"
         offset="0.93375683"
         id="stop23535" />
      <stop
         style="stop-color:#ffffff;stop-opacity:1"
         offset="1"
         id="stop23367" />
    </linearGradient>
    <linearGradient
       xlink:href="#linearGradient2127"
       id="linearGradient2616"
       gradientUnits="userSpaceOnUse"
       gradientTransform="matrix(1,0,0,0.9874232,26.035193,3.0169485)"
       x1="4.5881319"
       y1="54.282589"
       x2="75.616959"
       y2="21.891623" />
    <clipPath
       clipPathUnits="userSpaceOnUse"
       id="clipPath31139">
      <path
         title="Greening cryptocurrencies"
         style="display:inline;fill:url(#linearGradient31143);fill-opacity:1;stroke-width:0.262914"
         d="M 63.651294,87.75348 C 56.871388,86.986517 49.160459,83.92051 43.27408,79.651154 40.487443,77.630026 35.977127,73.116161 33.985779,70.355542 30.18776,65.090325 27.455264,58.429011 26.348565,51.737451 c -0.41783,-2.526363 -0.41783,-10.013919 0,-12.540274 2.668233,-16.133253 13.363144,-28.762606 28.84673,-34.0643896 4.733337,-1.6207594 7.961897,-2.1158392 13.797958,-2.1158392 4.401622,0 5.60626,0.091179 8.20208,0.6208006 8.4344,1.7208577 15.48937,5.3442707 21.653371,11.1210932 C 112.31673,27.380921 115.92715,47.83003 107.60408,64.348624 99.411605,80.608076 82.078343,89.83803 63.651294,87.75348 Z m 13.282279,-7.481299 c 7.24436,-1.758163 13.077092,-5.07092 18.13629,-10.300688 4.761249,-4.921762 7.801627,-10.650703 9.308227,-17.539282 0.65689,-3.003552 0.65689,-10.926247 0,-13.929792 C 102.03431,27.785991 95.223106,18.818164 85.687913,13.894421 80.440485,11.184771 75.011465,9.8789681 68.993253,9.8789681 c -9.993271,0 -18.972711,3.7855579 -25.936842,10.9344699 -11.78344,12.096087 -13.413052,30.514112 -3.937505,44.502039 3.233472,4.773301 8.128545,9.126101 13.166759,11.708144 3.265619,1.673602 5.793414,2.57053 9.431548,3.346564 2.605771,0.555821 3.436621,0.611788 7.937501,0.534652 3.986979,-0.06833 5.492968,-0.199224 7.278859,-0.632656 z"
         id="path31141" />
    </clipPath>
    <linearGradient
       xlink:href="#linearGradient2127"
       id="linearGradient31143"
       gradientUnits="userSpaceOnUse"
       gradientTransform="matrix(1,0,0,0.9874232,26.035193,3.0169482)"
       x1="4.5881319"
       y1="54.282589"
       x2="75.616959"
       y2="21.891623" />
  </defs>
  <g
     id="layer1"
     transform="translate(-33.374183,-62.750693)">
    <path
       style="fill:#162d50;stroke-width:0.352778"
       d="m 96.655562,185.03645 c 0,-4.87559 0.06671,-5.52528 0.548371,-5.34045 1.163236,0.44637 5.153427,0.92661 8.402657,1.01129 1.97144,0.0514 3.39383,0.2364 3.39227,0.44126 -10e-4,0.19403 -0.4581,1.14653 -1.0147,2.11667 -2.01294,3.50848 -6.16756,6.50277 -9.829293,7.08409 l -1.499305,0.23803 z m -21.00735,-4.55692 c -2.226073,-0.54076 -5.993998,-2.33129 -7.391262,-3.51235 l -1.058334,-0.89457 8.167723,-8.22175 c 4.492251,-4.52196 8.271359,-8.57294 8.398017,-9.00218 0.126661,-0.42923 0.0462,-1.1244 -0.178802,-1.54482 -0.389238,-0.7273 -0.596932,-0.57812 -4.278983,3.07348 l -3.869891,3.83788 -1.488828,-1.67177 c -3.168234,-3.55752 -6.589674,-10.26588 -7.96373,-15.61434 -4.602346,-17.91451 2.258819,-35.96082 17.499052,-46.02619 5.402707,-3.568182 11.898017,-6.015851 17.582106,-6.625561 l 2.46944,-0.26489 0.17639,-8.90737 0.17639,-8.90737 1.49013,0.73761 c 1.96283,0.9716 4.09046,3.1359 5.1024,5.19033 0.69863,1.41836 0.8158,2.19875 0.8158,5.43338 v 3.77714 l 0.88195,-0.24936 c 0.48507,-0.13715 2.23132,-0.2436 3.88055,-0.23655 2.54396,0.0109 3.27181,0.155 4.80046,0.95062 2.00091,1.04142 4.81228,3.942328 5.36936,5.540339 l 0.36131,1.036464 -11.17459,0.110427 -11.17459,0.11043 -1.78628,0.942734 c -3.801229,2.006157 -5.663113,5.280607 -5.365749,9.436647 0.275346,3.84833 2.215183,6.56449 5.917309,8.28543 1.51098,0.70239 2.3102,0.74646 16.58055,0.91435 l 14.99306,0.17639 2.37799,1.12646 c 4.10997,1.94692 7.19294,5.83925 7.97944,10.07423 l 0.3112,1.6757 h -11.9489 c -8.07709,0 -11.9489,0.1195 -11.9489,0.36881 0,0.20284 0.38966,0.75847 0.86591,1.23472 0.81572,0.81571 1.0937,0.86591 4.7956,0.86591 h 3.9297 l -0.24914,1.85208 c -1.83006,13.60462 -15.10003,23.23861 -28.39207,20.61264 -1.45521,-0.28749 -2.685095,-0.48592 -2.733087,-0.44094 -0.04799,0.045 0.08876,1.02145 0.303897,2.16996 1.52702,8.15211 -3.048183,17.12548 -10.708153,21.00194 -3.859647,1.95324 -9.346728,2.59633 -13.514445,1.58391 z m 32.896468,-41.82642 c 2.53977,-1.54859 2.81504,-4.40241 0.61128,-6.33733 -3.58144,-3.14455 -8.62282,1.63321 -5.56182,5.271 1.56182,1.85611 3.10877,2.18932 4.95054,1.06633 z m -8.869267,38.92785 c -1.540538,-0.27812 -2.86397,-0.56865 -2.940956,-0.64564 -0.320749,-0.32075 2.886008,-3.89425 3.413373,-3.80375 0.31057,0.0533 2.48384,0.19435 4.82949,0.31345 14.41688,0.73205 27.8766,-6.07456 36.17426,-18.2934 3.15003,-4.63862 5.91879,-11.96961 6.46987,-17.13058 0.1191,-1.11543 0.29644,-2.54398 0.39409,-3.17457 l 0.17755,-1.14653 h 2.31171 2.3117 l -0.23131,2.20486 c -1.10926,10.57325 -4.48135,18.65608 -11.02523,26.42724 -6.65049,7.89777 -16.81141,13.57603 -27.35283,15.28568 -4.03052,0.65369 -10.80209,0.63656 -14.531717,-0.0368 z m 2.859307,-6.72247 c -1.12234,-0.10396 -1.65259,-0.30174 -1.55068,-0.5784 0.0852,-0.23124 0.41832,-1.22211 0.74033,-2.20195 l 0.58546,-1.78153 4.66939,-0.0289 c 3.82954,-0.0237 5.29577,-0.19333 8.15194,-0.94308 9.40086,-2.46776 17.2752,-8.68575 21.68739,-17.12552 2.01349,-3.85146 3.41378,-8.29219 3.77695,-11.97783 l 0.24845,-2.52135 h 2.29819 2.2982 l -0.22847,2.73403 c -1.33696,15.99929 -13.81443,30.05315 -29.85909,33.63148 -3.02325,0.67425 -9.66451,1.08514 -12.81806,0.79304 z m 0.43768,-7.43702 c -0.0182,-0.14552 -0.0343,-1.19884 -0.0357,-2.3407 l -0.003,-2.07612 3.31729,0.0669 c 7.51459,0.15157 13.9875,-2.43603 19.34351,-7.73273 3.96964,-3.92569 6.80851,-9.24197 7.55119,-14.14093 0.57338,-3.78293 0.33732,-3.49796 2.89752,-3.49796 h 2.29041 l -0.24628,2.02847 c -0.70945,5.84342 -3.22499,11.88957 -6.83875,16.43711 -4.47387,5.62988 -11.14852,9.64865 -18.30859,11.02347 -2.71156,0.52066 -9.91094,0.68856 -9.96809,0.23248 z"
       id="path28721" />
    <text
       xml:space="preserve"
       style="font-style:italic;font-variant:normal;font-weight:bold;font-stretch:normal;font-size:34.5723px;line-height:1.25;font-family:Ubuntu;-inkscape-font-specification:'Ubuntu, Bold Italic';font-variant-ligatures:normal;font-variant-caps:normal;font-variant-numeric:normal;font-variant-east-asian:normal;text-align:center;text-anchor:middle;display:inline;fill:#00afc1;fill-opacity:1;stroke:none;stroke-width:0.264583"
       x="106.64066"
       y="277.87122"
       id="wordmark"><tspan
         id="tspan9304"
         x="106.64066"
         y="277.87122"
         style="font-style:italic;font-variant:normal;font-weight:bold;font-stretch:normal;font-size:34.5723px;font-family:Ubuntu;-inkscape-font-specification:'Ubuntu, Bold Italic';font-variant-ligatures:normal;font-variant-caps:normal;font-variant-numeric:normal;font-variant-east-asian:normal;text-align:center;text-anchor:middle;fill:#00afc1;fill-opacity:1;stroke-width:0.264583">marincoin</tspan></text>
    <path
       title="Greening cryptocurrencies"
       style="display:inline;fill:#00afc1;fill-opacity:1;stroke-width:0.463372"
       d="m 99.252354,213.04243 c -11.87384,-1.36031 -25.37822,-6.79829 -35.6872,-14.37056 -4.88032,-3.58476 -12.77937,-11.59071 -16.26688,-16.48703 -6.65158,-9.33859 -11.43708,-21.15334 -13.37527,-33.02172 -0.73176,-4.48084 -0.73176,-17.76104 0,-22.24188 4.67295,-28.61451 23.40326,-51.014384 50.52012,-60.41782 8.28963,-2.874635 13.9439,-3.752727 24.164766,-3.752727 7.70868,0 9.8184,0.161717 14.36454,1.101073 14.77141,3.052176 27.12698,9.47879 37.92218,19.724768 23.58695,22.386976 29.90999,58.656246 15.33355,87.954206 -14.34773,28.83835 -44.70397,45.20892 -76.975806,41.51169 z M 122.514,199.77334 c 12.68726,-3.11835 22.90229,-8.99396 31.76262,-18.26967 8.33851,-8.72942 13.66322,-18.89047 16.30175,-31.10829 1.15045,-5.32722 1.15045,-19.37919 0,-24.70639 -4.10471,-19.00704 -16.03338,-34.912694 -32.73264,-43.645622 -9.18998,-4.805932 -18.69798,-7.121951 -29.23784,-7.121951 -17.501506,0 -33.227466,6.714202 -45.423956,19.393765 -20.63668,21.454058 -23.49066,54.120928 -6.89586,78.930408 5.66287,8.4661 14.23576,16.18639 23.05933,20.76598 5.71917,2.96836 10.14617,4.55918 16.51774,5.93559 4.563556,0.98582 6.018656,1.08509 13.901176,0.94827 6.98252,-0.12119 9.62,-0.35335 12.74768,-1.12209 z"
       id="bcoin" />
    <g
       id="clickable"
       transform="matrix(1.7513292,0,0,1.7736359,33.374184,60.812998)"
       clip-path="none">
      <g
         id="gauge"
         transform="translate(-26.035193,-1.92445)">
        <rect
           style="opacity:0.9625;fill:#003030;fill-opacity:1;stroke:#75f0ff;stroke-width:0;stroke-miterlimit:4;stroke-dasharray:none;stroke-opacity:1"
           id="level"
           width="86.014915"
           height="85.028008"
           x="26.035192"
           y="13.016949"
           clip-path="url(#clipPath31139)" />
      </g>
      <g
         id="CO2"
         transform="matrix(0.73220239,0,0,0.73220239,-32.163962,20.26998)">
        <text
           xml:space="preserve"
           style="font-style:normal;font-variant:normal;font-weight:normal;font-stretch:normal;font-size:6.35px;line-height:1.25;font-family:sans-serif;-inkscape-font-specification:'sans-serif, Normal';font-variant-ligatures:normal;font-variant-caps:normal;font-variant-numeric:normal;font-variant-east-asian:normal;text-align:end;text-anchor:end;stroke-width:0.264583"
           x="127.52312"
           y="72.309486"
           id="CO"><tspan
             id="tspan49755"
             style="font-style:normal;font-variant:normal;font-weight:normal;font-stretch:normal;font-size:6.35px;font-family:sans-serif;-inkscape-font-specification:'sans-serif, Normal';font-variant-ligatures:normal;font-variant-caps:normal;font-variant-numeric:normal;font-variant-east-asian:normal;text-align:end;text-anchor:end;stroke-width:0.264583"
             x="123.16368"
             y="72.309486">CO</tspan></text>
        <text
           xml:space="preserve"
           style="font-style:normal;font-variant:normal;font-weight:normal;font-stretch:normal;font-size:4.58611px;line-height:1.25;font-family:sans-serif;-inkscape-font-specification:'sans-serif, Normal';font-variant-ligatures:normal;font-variant-caps:normal;font-variant-numeric:normal;font-variant-east-asian:normal;text-align:start;text-anchor:start;stroke-width:0.264583"
           x="122.42028"
           y="73.774536"
           id="two"><tspan
             id="tspan50749"
             style="font-style:normal;font-variant:normal;font-weight:normal;font-stretch:normal;font-size:4.58611px;font-family:sans-serif;-inkscape-font-specification:'sans-serif, Normal';font-variant-ligatures:normal;font-variant-caps:normal;font-variant-numeric:normal;font-variant-east-asian:normal;text-align:start;text-anchor:start;stroke-width:0.264583"
             x="123.48171"
             y="73.774536">2</tspan></text>
      </g>
      <text
         xml:space="preserve"
         style="font-size:3.89216px;line-height:1.25;font-family:sans-serif;text-align:start;text-anchor:start;stroke-width:0.162174"
         x="73.491684"
         y="63.730156"
         id="footprint"
         transform="scale(0.9359227,1.0684643)"><tspan
           id="co2weight"
           style="font-size:3.89216px;text-align:start;text-anchor:start;stroke-width:0.162174"
           x="53.883312"
           y="63.730156">3tons</tspan></text>
    </g>
    <path
       d="m 78.210216,149.33441 v -2.2701 l -3.599706,-0.0473 -3.59971,-0.0473 -0.02941,-1.61786 -0.02941,-1.61784 1.224275,-7.6e-4 c 1.675142,-0.001 2.500768,-0.25253 2.760849,-0.84024 0.234467,-0.52984 0.412941,-15.78144 0.21067,-18.00278 -0.17141,-1.88241 -0.354321,-2.04167 -2.431179,-2.11671 l -1.677168,-0.0607 v -1.64456 -1.64463 h 3.585383 3.58539 v -2.27386 -2.27367 l 1.79269,-2.9e-4 1.792691,-4.2e-4 -0.05346,2.27396 -0.05346,2.27397 h 1.933591 1.93359 v -2.27364 -2.27366 h 1.743879 1.743902 l 0.04884,2.31738 0.04884,2.31739 1.089779,0.1202 c 3.2503,0.35854 5.423457,1.4872 6.346259,3.29601 0.501714,0.98348 0.748606,2.86725 0.543047,4.14362 -0.383288,2.38002 -1.82863,4.00209 -4.349978,4.88189 -0.505021,0.17621 -0.918214,0.36811 -0.918214,0.42641 0,0.0583 0.43057,0.20236 0.956797,0.32014 2.238018,0.50085 4.138609,1.9032 4.963218,3.66209 0.427193,0.91119 0.463725,1.16823 0.463725,3.26277 0,2.13039 -0.03058,2.33582 -0.484551,3.26034 -0.537997,1.09552 -1.637199,2.20535 -2.742944,2.76946 -0.939563,0.47934 -3.096351,1.013 -4.694138,1.16149 l -1.260454,0.11723 v 2.336 2.336 H 87.304885 85.55591 v -2.27364 -2.27367 H 83.622319 81.68874 l 0.05346,2.27397 0.05346,2.27397 -1.792691,-3e-4 -1.792702,-3.1e-4 z m 10.285615,-6.02457 c 1.948146,-0.61887 2.83489,-2.0175 2.827802,-4.46021 -0.0083,-2.81708 -1.271987,-3.98977 -4.731807,-4.3906 -0.906444,-0.10502 -2.356421,-0.1664 -3.222149,-0.1364 l -1.574068,0.0545 -0.04658,4.69875 -0.04658,4.69872 2.932407,-0.0849 c 2.06553,-0.0599 3.206942,-0.17211 3.861041,-0.37991 z m -2.473543,-12.35826 c 3.132135,-0.43564 4.187516,-1.60362 4.056264,-4.48903 -0.05085,-1.11847 -0.145238,-1.50085 -0.497043,-2.01426 -0.868763,-1.26785 -2.320968,-1.70173 -5.695764,-1.70173 h -2.177602 v 4.08092 c 0,2.24452 0.05251,4.1334 0.116636,4.19752 0.181154,0.18114 2.681747,0.13742 4.197544,-0.0734 z"
       style="display:inline;fill:#00afc1;fill-opacity:1;stroke-width:0.0462749"
       id="path31607" />
  </g>
</svg>
