<?xml version="1.0" encoding="UTF-8" standalone="no"?>
<!-- Created with Inkscape (http://www.inkscape.org/) -->

<svg
   width="150.64044mm"
   height="150.80872mm"
   viewBox="0 0 150.64044 150.80872"
   version="1.1"
   id="svg46560"
   xmlns="http://www.w3.org/2000/svg"
   xmlns:svg="http://www.w3.org/2000/svg">
  <defs
     id="defs46557" />
  <g
     id="layer1"
     transform="translate(-4.38184,-4.381171)">
    <g
       id="g46555"
       transform="translate(-210.21985,-60.043572)">
      <ellipse
         style="fill:#f9f9f9;fill-opacity:1;stroke-width:0.264583"
         id="path46376"
         cx="289.71957"
         cy="139.77982"
         rx="69.555901"
         ry="73.522324" />
      <path
         style="fill:#000000;stroke-width:0.264583"
         d="m 287.72435,183.76144 c -0.5559,-0.50222 -1.37603,-1.66308 -1.8225,-2.57968 -0.77027,-1.58136 -1.93076,-4.94536 -1.93083,-5.59704 -2e-5,-0.21732 1.49438,-0.30285 5.29163,-0.30285 4.52835,0 5.29133,0.0572 5.28933,0.39687 -0.005,0.88933 -1.79816,5.51491 -2.62788,6.77963 -0.88621,1.35082 -1.96689,2.21621 -2.76759,2.21621 -0.23179,0 -0.87626,-0.41091 -1.43216,-0.91314 z m -7.33917,-1.16309 c -1.15647,-0.55984 -2.82781,-1.60164 -3.71409,-2.3151 -1.73835,-1.39939 -4.3417,-4.23261 -4.3417,-4.72506 0,-0.21392 1.11576,-0.29892 3.80076,-0.28957 l 3.80076,0.0132 0.7056,2.51355 c 0.38808,1.38244 1.05273,3.25768 1.477,4.16718 0.42428,0.90951 0.68207,1.65365 0.57287,1.65365 -0.10919,0 -1.14473,-0.45805 -2.3012,-1.01789 z m 16.01545,-0.62 c 0.42618,-0.91817 1.08074,-2.7337 1.4546,-4.03452 0.37386,-1.30081 0.70684,-2.39214 0.73997,-2.42517 0.0331,-0.033 1.75702,-0.0998 3.83087,-0.14842 2.51436,-0.0589 3.77053,0.004 3.77031,0.18956 -5.3e-4,0.43938 -2.07522,2.76568 -3.82521,4.28912 -1.46039,1.27133 -4.70728,3.18057 -6.15661,3.62023 -0.57883,0.17559 -0.57569,0.15039 0.18607,-1.4908 z m -26.95961,-12.8808 c -0.30317,-1.29132 -0.55122,-3.19632 -0.55122,-4.23333 v -1.88548 h 4.9859 4.98589 l 0.16366,3.78923 c 0.09,2.08407 0.24035,3.98907 0.33408,4.23333 0.15566,0.40563 -0.24273,0.44411 -4.59834,0.44411 h -4.76877 z m 13.64586,1.48796 c -0.0821,-0.47294 -0.23055,-2.37794 -0.32986,-4.23333 l -0.18055,-3.37344 h 6.68908 6.68908 l -0.17953,3.37344 c -0.0987,1.85539 -0.24845,3.76039 -0.33269,4.23333 l -0.15316,0.8599 h -6.02653 -6.02653 z m 16.07923,0.41579 c 0.0937,-0.24426 0.24407,-2.14926 0.33408,-4.23333 l 0.16366,-3.78923 h 4.98589 4.9859 v 1.88548 c 0,1.03701 -0.24805,2.94201 -0.55122,4.23333 l -0.5512,2.34786 h -4.76877 c -4.35561,0 -4.754,-0.0385 -4.59834,-0.44411 z m -29.48256,-26.23739 c 0,-0.52166 1.28239,-3.33094 2.2739,-5.86013 l 1.24552,-2.64796 h 3.68208 c 3.38379,0 3.67072,0.0375 3.54181,0.46303 -0.12914,0.42627 -1.21361,7.61803 -1.21687,8.06979 -7.9e-4,0.10914 -2.14456,0.19843 -4.76394,0.19843 -2.61937,0 -4.7625,-0.10042 -4.7625,-0.22316 z m 13.44682,0.088 c -0.13732,-0.13732 0.31074,-3.72167 0.85823,-6.86559 l 0.30136,-1.73054 h 4.9595 4.9595 l 0.44248,2.57969 c 0.61927,3.61041 0.89665,5.86341 0.74106,6.019 -0.17485,0.17486 -12.0872,0.17236 -12.26213,-0.003 z m 16.05668,-1.12165 c -0.28297,-2.1917 -0.96253,-6.53061 -1.09815,-7.01145 -0.11987,-0.42503 0.1712,-0.46303 3.54753,-0.46303 h 3.67812 l 1.09449,2.31511 c 1.11794,2.36472 2.43285,5.69278 2.43285,6.1576 0,0.15873 -1.83241,0.25854 -4.74629,0.25854 h -4.74629 z m -23.68266,-25.63232 c 0,-0.57083 8.69157,-12.92628 8.92729,-12.69055 0.0385,0.0385 -0.45148,2.02423 -1.08878,4.41281 -0.63731,2.38858 -1.36395,5.26561 -1.61477,6.3934 l -0.45603,2.05052 h -2.88386 c -1.58612,0 -2.88385,-0.0748 -2.88385,-0.16618 z m 9.90768,-1.02202 c 0.098,-0.6535 0.82589,-3.56572 1.61754,-6.47159 0.79165,-2.90588 1.43936,-5.38844 1.43936,-5.5168 0,-0.12837 -0.48365,-0.37832 -1.07478,-0.55542 -0.59113,-0.17711 -1.56224,-0.7615 -2.15802,-1.29866 -3.31179,-2.98589 -2.54441,-8.12344 1.49426,-10.00403 2.45383,-1.14262 4.85118,-0.70383 6.80978,1.2464 1.33333,1.32763 1.8078,2.50646 1.80064,4.47368 -0.009,2.35255 -1.92897,4.89931 -4.2096,5.58261 -0.59113,0.1771 -1.07478,0.43331 -1.07478,0.56933 0,0.13602 0.5364,2.19835 1.19199,4.58295 0.6556,2.3846 1.33107,5.31314 1.68611,6.45768 l 0.49412,2.12205 h -4.0974 -4.0974 z m 5.1965,-16.34889 c 0.60438,-0.46404 1.0354,-1.37043 1.0354,-2.17736 0,-0.99991 -1.32113,-2.246 -2.38125,-2.246 -1.06012,0 -2.38125,1.24609 -2.38125,2.246 0,1.48983 0.962,2.49967 2.38125,2.49967 0.50932,0 1.11495,-0.14504 1.34585,-0.32231 z m 6.06281,14.9574 c -0.32674,-1.41883 -1.06207,-4.2899 -1.63405,-6.38016 -0.57199,-2.09026 -1.00106,-3.8394 -0.95348,-3.88698 0.2391,-0.23909 8.9372,12.10231 8.9372,12.68065 0,0.0914 -1.29501,0.16618 -2.8778,0.16618 h -2.8778 z"
         id="path36737" />
      <path
         title="Greening cryptocurrencies"
         style="display:inline;fill:#d40000;fill-opacity:1;stroke-width:0.463372"
         d="m 280.47986,214.71648 c -11.87384,-1.36031 -25.37822,-6.79829 -35.6872,-14.37056 -4.88032,-3.58476 -12.77937,-11.59071 -16.26688,-16.48703 -6.65158,-9.33859 -11.43708,-21.15334 -13.37527,-33.02172 -0.73176,-4.48084 -0.73176,-17.76104 0,-22.24188 4.67295,-28.61451 23.40326,-51.014384 50.52012,-60.41782 8.28963,-2.874635 13.9439,-3.752727 24.16477,-3.752727 7.70868,0 9.8184,0.161717 14.36454,1.101073 14.77141,3.052176 27.12698,9.47879 37.92218,19.724768 23.58695,22.386976 29.90999,58.656246 15.33355,87.954206 -14.34773,28.83835 -44.70397,45.20892 -76.97581,41.51169 z m 23.26165,-13.26909 c 12.68726,-3.11835 22.90229,-8.99396 31.76262,-18.26967 8.33851,-8.72942 13.66322,-18.89047 16.30175,-31.10829 1.15045,-5.32722 1.15045,-19.37919 0,-24.70639 -4.10471,-19.00704 -16.03338,-34.912694 -32.73264,-43.645622 -9.18998,-4.805932 -18.69798,-7.121951 -29.23784,-7.121951 -17.50151,0 -33.22747,6.714202 -45.42396,19.393765 -20.63668,21.454058 -23.49066,54.120928 -6.89586,78.930408 5.66287,8.4661 14.23576,16.18639 23.05933,20.76598 5.71917,2.96836 10.14617,4.55918 16.51774,5.93559 4.56356,0.98582 6.01866,1.08509 13.90118,0.94827 6.98252,-0.12119 9.62,-0.35335 12.74768,-1.12209 z"
         id="bcoin-3" />
      <text
         xml:space="preserve"
         style="font-style:normal;font-variant:normal;font-weight:bold;font-stretch:normal;font-size:16.9333px;line-height:1.25;font-family:sans-serif;-inkscape-font-specification:'sans-serif Bold';text-align:center;text-anchor:middle;fill:#ff0000;fill-opacity:1;stroke:none;stroke-width:0.264583"
         x="287.33862"
         y="160.05768"
         id="text35371"><tspan
           style="font-style:normal;font-variant:normal;font-weight:bold;font-stretch:normal;font-size:16.9333px;font-family:sans-serif;-inkscape-font-specification:'sans-serif Bold';text-align:center;text-anchor:middle;fill:#ff0000;stroke-width:0.264583"
           x="287.33862"
           y="160.05768"
           id="tspan35373">BY CATCH</tspan></text>
      <text
         xml:space="preserve"
         style="font-style:normal;font-variant:normal;font-weight:bold;font-stretch:normal;font-size:16.9333px;line-height:1.25;font-family:sans-serif;-inkscape-font-specification:'sans-serif Bold';text-align:center;text-anchor:middle;fill:#ff0000;fill-opacity:1;stroke:none;stroke-width:0.264583"
         x="288.25235"
         y="133.33353"
         id="text42854"><tspan
           id="tspan42852"
           style="font-style:normal;font-variant:normal;font-weight:bold;font-stretch:normal;font-size:16.9333px;font-family:sans-serif;-inkscape-font-specification:'sans-serif Bold';text-align:center;text-anchor:middle;fill:#ff0000;stroke-width:0.264583"
           x="288.25235"
           y="133.33353">NO</tspan></text>
    </g>
  </g>
</svg>
