<?xml version="1.0" encoding="UTF-8" standalone="no"?>
<!-- Created with Inkscape (http://www.inkscape.org/) -->

<svg
   version="1.1"
   id="svg2"
   width="612.15051"
   height="614.23993"
   viewBox="0 0 612.15051 614.23992"
   xmlns="http://www.w3.org/2000/svg"
   xmlns:svg="http://www.w3.org/2000/svg">
  <defs
     id="defs6" />
  <g
     id="g8"
     transform="translate(-147.40942,-156.02777)">
    <g
       id="g845"
       transform="translate(142.18675,247.90775)">
      <path
         style="fill:#a5a5a5"
         d="m 198,483.43265 c -13.26723,-1.41112 -26.12539,-4.31481 -31.83659,-7.18949 -1.95003,-0.98153 -5.2153,-4.26061 -7.47328,-7.50489 l -4.01009,-5.76174 1.1699,-14.73826 c 0.64344,-8.10605 1.88629,-23.28827 2.76189,-33.73827 1.1514,-13.74156 1.62592,-32.838 1.71455,-69 0.13674,-55.79578 -0.73261,-71.96892 -6.77285,-126 -0.8608,-7.7 -1.82324,-15.2375 -2.13876,-16.75 L 150.84109,200 h -15.52016 c -8.53608,0 -23.23783,-0.46966 -32.67054,-1.04369 C 51.886249,195.86706 26,186.55602 26,171.38589 c 0,-2.00962 -0.521229,-5.39356 -1.158288,-7.51987 -1.76574,-5.89352 0.09413,-10.57983 6.919104,-17.43401 C 47.746616,130.37778 85.705469,113.05194 139,97.484036 c 115.74743,-33.81106 259.13714,-52.88395 358,-47.61914 35.65237,1.898619 61.65229,7.939166 70.84732,16.459916 3.34463,3.099371 6.4224,9.540942 5.75745,12.049992 -0.30977,1.168858 0.17613,4.070579 1.07977,6.448268 1.57723,4.150036 1.55763,4.49877 -0.48963,8.712645 -1.17294,2.414265 -3.7882,6.222098 -5.81168,8.461853 -11.37152,12.58691 -50.71966,31.43855 -92.86403,44.49102 -8.23944,2.55182 -15.17978,4.83866 -15.42298,5.08185 -0.55352,0.55353 2.03157,15.9173 9.49479,56.42956 4.34683,23.59572 7.4197,37.766 14.51284,66.92459 11.40452,46.88196 19.41032,72.88284 33.79888,109.77058 C 522.1627,395.6164 525,404.37629 525,406.60732 c 0,22.15726 -59.92373,47.05281 -156,64.81081 -60.48598,11.17976 -131.76375,16.18776 -171,12.01452 z"
         id="path855" />
      <path
         style="fill:#6d6d6d"
         d="m 212,483.88446 c -20.0557,-0.81434 -30.84855,-2.56163 -43.03647,-6.96729 -4.86166,-1.75738 -6.06643,-2.7828 -9.88441,-8.41297 -4.21824,-6.22042 -4.32915,-6.58455 -3.71858,-12.20793 6.57488,-60.55476 7.57431,-135.97068 2.60138,-196.29627 -1.08961,-13.21773 -6.04314,-59.32027 -6.42068,-59.75715 -0.12221,-0.14144 -10.75649,-0.5093 -23.63173,-0.81747 -50.363528,-1.20546 -78.22422,-5.71871 -93.149399,-15.08959 -5.229397,-3.28331 -8.885063,-9.1216 -8.739619,-13.95763 C 26.084642,168.24517 25.73456,164.925 25.242533,163 23.789375,157.31469 25.520277,153.29454 32.370834,146.44398 43.12206,135.69275 58.58333,127.10671 89.270368,114.84618 156.36748,88.038572 269.42924,63.78463 372.5,54.087923 c 39.26686,-3.694153 47.98051,-4.093784 89,-4.081776 50.16623,0.01469 69.58458,1.864959 90.22705,8.597263 C 565.66723,63.14984 573,69.717788 573,77.657562 c 0,2.035243 0.51385,5.121478 1.1419,6.8583 2.21263,6.118943 0.43916,10.214581 -7.99852,18.471608 -14.26962,13.96411 -45.06289,28.65045 -89.14338,42.51546 -19.45922,6.12067 -18.30857,4.36401 -14.99205,22.88802 18.7214,104.56581 32.30394,157.40845 55.84785,217.27506 3.92931,9.99131 7.1442,19.35115 7.1442,20.79966 0,3.46195 -2.26985,7.72038 -6.77055,12.70211 C 487.30981,453.39213 321.90783,488.34718 212,483.88446 Z M 499,350.5014 c 0,-0.27423 -1.58388,-5.28287 -3.51973,-11.13032 C 480.65463,294.58863 468.15817,240.46574 450.60187,145 l -2.11486,-11.5 -9.49351,-1.56457 c -5.22142,-0.86052 -9.609,-1.49502 -9.75016,-1.41001 -0.61581,0.37086 10.00622,62.91821 13.24195,77.97458 1.30018,6.05 3.55259,16.85 5.00535,24 4.22321,20.78523 17.253,71.38159 23.56349,91.5 8.2778,26.39042 6.58763,23.60343 15.13272,24.953 4.02223,0.63525 7.98815,1.3035 8.81315,1.485 2.54948,0.56088 4,0.58387 4,0.0634 z"
         id="path853" />
      <path
         style="fill:#4e4e4e"
         d="m 198,482.95322 c -10.22285,-1.24252 -21.45142,-3.55236 -28.02814,-5.76569 -4.71378,-1.58638 -6.13854,-2.72867 -10.28399,-8.24509 -4.50023,-5.98854 -4.77522,-6.69649 -4.24277,-10.92301 0.31314,-2.48568 1.44948,-15.09443 2.5252,-28.01943 5.90795,-70.98519 4.84197,-133.93168 -3.50546,-207 -1.3509,-11.825 -2.45813,-21.99788 -2.46051,-22.6064 -0.003,-0.77055 -9.03509,-1.2831 -29.75433,-1.68849 -36.875554,-0.7215 -56.3317,-2.91807 -73.25,-8.2698 -15.26546,-4.82889 -23.802145,-12.55237 -22.450243,-20.31161 0.323541,-1.85696 0.05571,-4.66196 -0.595168,-6.23333 -2.001884,-4.83298 -0.405431,-9.28941 5.684051,-15.86677 C 41.29908,137.58917 57.843399,128.1748 87.5,116.2363 107.58633,108.15039 117.01377,104.90044 138.97333,98.49179 208.24242,78.276373 294.30793,61.968515 368,55.09538 c 6.325,-0.589922 16.225,-1.51525 22,-2.056284 27.42441,-2.569272 49.68415,-3.288375 81.5,-2.632866 18.15,0.373948 33.675,0.707154 34.5,0.740456 3.75578,0.151608 24.9605,2.962767 29,3.844597 2.475,0.540297 5.625,1.183077 7,1.4284 5.13496,0.916164 13.68382,3.897958 19.29582,6.730279 6.9034,3.484072 12.1759,10.509594 11.29643,15.052316 -0.28774,1.486252 0.13352,3.961252 0.93613,5.5 2.15981,4.140726 1.80225,7.387129 -1.36043,12.351941 -5.76853,9.055491 -17.63846,17.509071 -38.55871,27.460901 -15.51952,7.38269 -37.43308,15.88129 -54.10924,20.98484 -22.2967,6.82366 -20.02629,5.638 -19.8118,10.34622 0.10351,2.27208 2.03079,14.59868 4.28284,27.39244 14.93946,84.86988 32.01552,149.9326 53.08372,202.25803 3.81901,9.48498 7.2182,18.61816 7.55376,20.29597 1.3547,6.7735 -7.1302,17.3147 -20.01614,24.86701 -25.60232,15.00523 -82.03523,31.99518 -138.59238,41.72526 -28.63695,4.92669 -42.86806,6.83132 -76.5,10.23844 -17.61994,1.78501 -80.26439,2.6955 -91.5,1.32989 z m 301,-133.3311 c 0,-0.75783 -0.66059,-2.95888 -1.46797,-4.89122 C 494.46547,337.3916 484.65005,303.57645 479.03305,281 472.22969,253.65525 463.6991,213.13932 454.89909,166.37616 l -6.23332,-33.12384 -9.53944,-1.58627 c -5.24669,-0.87245 -9.73206,-1.39365 -9.96749,-1.15823 -0.82744,0.82745 9.08167,58.31082 14.99592,86.99218 9.48291,45.98778 17.96643,79.50702 28.47308,112.5 3.0651,9.625 5.70272,17.63748 5.86138,17.80552 0.37497,0.39711 15.33288,2.91394 18.26078,3.07258 1.30368,0.0706 2.25,-0.45761 2.25,-1.25598 z"
         id="path851" />
      <path
         style="fill:#2d2d2d"
         d="m 201.55846,482.92987 c -12.32845,-1.09099 -20.37247,-2.58783 -29.64009,-5.51547 -7.66234,-2.42053 -8.02286,-2.67801 -12.04692,-8.6037 l -4.1482,-6.10849 0.5863,-8.60111 c 0.32246,-4.7306 1.55924,-20.0761 2.74838,-34.1011 2.942,-34.69848 3.26762,-111.7373 0.6171,-146 -1.586,-20.50195 -5.8355,-62.29438 -7.2288,-71.09299 l -0.56897,-3.59298 -27.68863,-0.64684 C 85.153988,197.75529 65.438295,195.46008 48.5,189.85586 19.542627,180.275 18.965964,165.12628 46.874192,147.14644 53.726411,142.7319 73.418694,132.85974 84,128.53447 133.52353,108.29098 205.40199,89.962916 292,75.497199 c 16.00986,-2.674358 44.50141,-6.428595 64.5,-8.49895 11,-1.138776 21.8,-2.262362 24,-2.496858 8.87336,-0.945804 15.58258,-1.454464 27.5,-2.084914 6.875,-0.363699 13.21018,-0.790463 14.07818,-0.948367 6.2463,-1.136302 55.41487,-1.504268 71.92182,-0.538245 35.1323,2.056019 56.8687,6.100025 69.52408,12.934787 5.98864,3.234275 7.30526,4.456231 9.30294,8.634096 2.92962,6.126874 2.39929,9.36896 -2.61744,16.001252 -10.35589,13.69084 -46.47997,31.72302 -93.20958,46.52776 -9.075,2.87511 -16.89174,5.58428 -17.37052,6.02038 -1.8082,1.64697 12.75654,79.6499 22.39747,119.95186 11.23346,46.95928 20.29828,76.327 35.90868,116.33503 3.36967,8.63615 6.18375,17.22038 6.25351,19.07608 0.75371,20.04866 -53.54405,43.82187 -139.32452,61.00051 -65.0834,13.03378 -139.85282,19.36358 -183.30616,15.51825 z M 504.63547,371.46239 c -1.921,-6.40914 -3.68631,-11.84657 -3.92291,-12.08317 -0.72312,-0.72311 -17.9055,-3.51961 -18.42618,-2.99893 -0.53005,0.53004 3.09989,13.3939 5.81579,20.61019 l 1.69003,4.49048 8.8539,1.51561 c 4.86964,0.83358 8.99525,1.20133 9.168,0.81721 0.17276,-0.38412 -1.25762,-5.94224 -3.17863,-12.35139 z M 497.39634,343.75 C 485.11043,307.89884 470.79229,249.76108 460.0234,192 c -4.91337,-26.35385 -11.18455,-58.47578 -11.47482,-58.7758 -0.45883,-0.47422 -18.8321,-3.29942 -19.53784,-3.00427 -0.36833,0.15404 1.66644,14.23007 4.52171,31.28007 11.11591,66.37788 25.76348,128.96154 40.72434,174 l 4.31834,13 7.46243,1.12052 c 4.10434,0.61629 8.89813,1.17879 10.65287,1.25 L 499.88085,351 Z M 572.07895,76.416667 c 0.048,-1.164943 0.28494,-1.4019 0.60416,-0.604167 0.28887,0.721875 0.25335,1.584375 -0.0789,1.916667 -0.33229,0.332291 -0.56864,-0.258334 -0.52522,-1.3125 z"
         id="path849" />
      <path
         style="fill:#000000"
         d="m 206.31039,483.02942 c -15.04798,-1.11397 -24.20462,-2.67401 -33.99212,-5.79132 -8.07325,-2.57132 -8.23763,-2.69029 -12.39851,-8.97336 l -4.21679,-6.36749 1.73305,-19.69863 C 158.38919,431.36438 159.60822,418 160.14498,412.5 c 0.53675,-5.5 1.22342,-28.675 1.52592,-51.5 0.52408,-39.54383 -0.23713,-67.84573 -2.67619,-99.5 -1.01895,-13.22402 -5.64641,-55.87177 -6.57443,-60.59148 l -0.50956,-2.59148 -17.20536,0.22038 c -45.134492,0.5781 -82.663341,-4.76316 -97.979585,-13.94488 -7.213193,-4.32414 -10.075597,-8.79751 -9.305585,-14.5428 0.734335,-5.47909 3.220764,-9.13044 10.47377,-15.38085 14.670827,-12.64287 56.036255,-31.02539 97.46962,-43.31486 133.33622,-39.548596 307.48767,-59.69858 396.14028,-45.834936 24.6333,3.852195 37.26257,9.442063 41.42865,18.336809 l 2.28167,4.871472 -2.00625,4.535478 C 566.48502,108.46111 532.42031,126.9072 480.5,143.46434 c -23.83338,7.60035 -22.64385,7.07259 -22.0301,9.77421 0.28256,1.2438 2.09828,11.48645 4.03493,22.76145 9.29744,54.12889 20.42988,104.74134 31.12358,141.5 5.78741,19.89375 16.78938,51.99673 23.78211,69.39453 3.62421,9.01699 6.58948,17.88614 6.58948,19.70924 0,28.84398 -114.03403,64.1604 -242,74.94758 -21.62436,1.82287 -60.71893,2.58631 -75.68961,1.47807 z m 132.41878,-69.63359 c -0.33229,-0.33229 -1.1948,-0.36781 -1.91667,-0.0789 -0.79773,0.31922 -0.56078,0.55618 0.60417,0.60416 1.05416,0.0434 1.64479,-0.19293 1.3125,-0.52522 z M 508.55966,382.25 c -1.34808,-5.64127 -6.80392,-22.77797 -7.48774,-23.51886 -0.56756,-0.61492 -16.3274,-3.64397 -19.32192,-3.71368 -0.4125,-0.01 -0.75,0.66586 -0.75,1.50103 0,2.1205 7.01477,23.78051 8.06093,24.89032 0.90741,0.96262 12.47914,3.29006 17.29748,3.47906 2.62699,0.10305 2.8052,-0.11051 2.20125,-2.63787 z M 500,351.18759 c 0,-0.44683 -1.36159,-4.83433 -3.02575,-9.75 C 483.30473,301.06005 471.27734,250.01617 454.92929,163 c -2.84159,-15.125 -5.53124,-28.175 -5.97701,-29 -0.86949,-1.60922 -19.67507,-5.25755 -20.47005,-3.97124 -0.6844,1.10737 9.89581,62.99773 15.03875,87.97124 8.54361,41.48672 18.44047,80.3442 28.56373,112.14816 l 5.93575,18.64817 8.73977,1.17418 c 4.80687,0.64581 9.18977,1.3311 9.73977,1.52289 1.86899,0.65172 3.5,0.50921 3.5,-0.30581 z"
         id="path847" />
    </g>
  </g>
</svg>
