<?xml version="1.0" encoding="UTF-8" standalone="no"?>
<!-- Created with Inkscape (http://www.inkscape.org/) -->

<svg
   version="1.1"
   id="svg2"
   width="256.81866"
   height="412.2897"
   viewBox="0 0 256.81866 412.2897"
   xmlns:xlink="http://www.w3.org/1999/xlink"
   xmlns="http://www.w3.org/2000/svg"
   xmlns:svg="http://www.w3.org/2000/svg">
  <defs
     id="defs6">
    <linearGradient
       id="linearGradient35383">
      <stop
         style="stop-color:#660066;stop-opacity:1;"
         offset="0"
         id="stop35379" />
      <stop
         style="stop-color:#006644;stop-opacity:1"
         offset="1"
         id="stop35381" />
    </linearGradient>
    <linearGradient
       id="linearGradient34257">
      <stop
         style="stop-color:#ff4b00;stop-opacity:1"
         offset="0"
         id="stop34253" />
      <stop
         style="stop-color:#fff900;stop-opacity:1"
         offset="1"
         id="stop34255" />
    </linearGradient>
    <linearGradient
       xlink:href="#linearGradient34257"
       id="linearGradient34259"
       x1="98.398346"
       y1="157.94109"
       x2="116.34243"
       y2="233.18793"
       gradientUnits="userSpaceOnUse" />
    <linearGradient
       xlink:href="#linearGradient35383"
       id="linearGradient35385"
       x1="168.18182"
       y1="71.869064"
       x2="70.952232"
       y2="149.78357"
       gradientUnits="userSpaceOnUse" />
  </defs>
  <g
     id="g8"
     transform="translate(0.8918115,67.921618)">
    <path
       style="fill:url(#linearGradient35385);fill-opacity:1;stroke-width:0.502618"
       d="m 123.95488,257.09486 c -0.91788,-0.45231 -2.27495,-1.61651 -3.01571,-2.58711 l -1.34683,-1.76471 -0.14492,-14.61611 c -0.14256,-14.37785 -0.12617,-14.65297 1.00524,-16.87789 1.2373,-2.43316 4.43988,-4.52356 6.93026,-4.52356 2.49038,0 5.69296,2.0904 6.93026,4.52356 1.13141,2.22492 1.1478,2.50004 1.00524,16.87789 l -0.14492,14.61611 -1.35383,1.77389 c -2.45397,3.21538 -6.45136,4.26 -9.86479,2.57793 z M 52.093801,227.20863 c -2.047348,-1.31095 -3.621873,-4.28727 -3.621873,-6.8464 0,-2.97685 1.97102,-5.49987 12.125643,-15.52149 7.710177,-7.60919 9.594843,-9.21552 11.374623,-9.69476 5.747444,-1.54763 11.040069,3.42246 9.948826,9.34254 -0.305723,1.65858 -1.796964,3.38501 -10.494353,12.14952 -5.575891,5.61891 -10.748742,10.53828 -11.495225,10.93193 -2.033607,1.07239 -5.87515,0.89529 -7.837641,-0.36134 z m 142.388589,0.12652 c -0.82932,-0.52074 -5.95676,-5.43926 -11.3943,-10.93006 -8.46219,-8.54505 -9.93783,-10.26179 -10.24305,-11.91657 -1.09186,-5.91972 4.20105,-10.8902 9.9486,-9.34254 1.77978,0.47924 3.66445,2.08557 11.37463,9.69476 10.15462,10.02162 12.12564,12.54464 12.12564,15.52149 0,2.59575 -1.60152,5.57826 -3.68768,6.86758 -2.20848,1.36492 -6.03874,1.41458 -8.12384,0.10534 z m -72.62827,-19.93822 c -0.69109,-0.11845 -2.83979,-0.45886 -4.77486,-0.75647 -13.7048,-2.10778 -28.643515,-11.41885 -36.607885,-22.81714 -1.151528,-1.64802 -2.236383,-3.20102 -2.410781,-3.45112 -0.174952,-0.25087 -1.752101,0.11656 -3.518325,0.81967 -24.836807,9.88727 -52.153732,-6.69912 -55.183839,-33.50673 -0.934454,-8.2672 0.725997,-16.05719 5.354846,-25.12223 11.185325,-21.9051 32.252972,-41.989566 57.111538,-54.446254 2.527117,-1.26634 4.760926,-2.556826 4.964024,-2.867741 0.203098,-0.310919 0.372731,-1.71656 0.376963,-3.123648 0.01814,-6.036249 3.727383,-15.690624 8.303542,-21.612486 2.898612,-3.751003 8.022957,-8.129908 12.397237,-10.593812 l 3.38597,-1.907223 -7.47399,-7.572222 c -6.179711,-6.260922 -7.535391,-7.899444 -7.828488,-9.461787 -0.743085,-3.9609865 0.590822,-7.2119229 3.708246,-9.0375774 1.794792,-1.05107692 5.444162,-1.21507312 7.197712,-0.3234519 0.64685,0.3289077 5.52739,4.9230445 10.84562,10.2091923 l 9.66952,9.61118 9.93258,-9.868545 C 148.02891,0.91251168 149.28423,0.07068238 153.32007,0.82781138 c 2.52396,0.47349672 5.52437,3.45419192 5.99333,5.95393572 0.77614,4.1371749 0.22973,5.0445889 -8.08389,13.4250099 l -7.73326,7.795395 3.3945,1.91202 c 4.38212,2.468324 9.50524,6.845163 12.40574,10.598609 4.57616,5.921862 8.28539,15.576237 8.30355,21.612486 0.004,1.407088 0.17386,2.812729 0.37696,3.123648 0.2031,0.310915 2.43691,1.601401 4.96402,2.867741 24.85857,12.456688 45.92622,32.541154 57.11154,54.446254 4.62089,9.04944 6.28683,16.85642 5.35842,25.11068 -3.01491,26.80456 -30.34917,43.40613 -55.18741,33.51828 -1.76623,-0.70311 -3.34337,-1.07054 -3.51833,-0.81967 -0.17439,0.2501 -1.25925,1.8031 -2.41078,3.45112 -7.73905,11.07583 -21.49375,19.88477 -35.35133,22.64012 -3.75229,0.74608 -14.69485,1.34381 -17.08901,0.93349 z m 14.67416,-16.79056 c 7.71405,-1.70586 15.00022,-5.71778 20.69896,-11.39731 2.77337,-2.76401 6.8534,-8.17542 6.84135,-9.0738 -0.003,-0.2225 -0.96423,-1.78064 -2.13612,-3.46255 -1.17188,-1.6819 -2.79428,-4.45258 -3.60532,-6.15706 l -1.47461,-3.09906 H 127.38292 97.913302 l -1.474615,3.09906 c -0.811039,1.70448 -2.433434,4.47516 -3.605318,6.15706 -1.171888,1.68191 -2.133145,3.24005 -2.136125,3.46255 -0.01206,0.89838 4.067987,6.30979 6.841351,9.0738 10.232055,10.19755 24.954175,14.50106 38.989685,11.39731 z M 66.097979,167.16158 c 6.368172,-1.88944 12.164953,-6.40346 14.907568,-11.6087 2.367525,-4.49335 33.983123,-82.069804 33.602103,-82.450823 -0.51055,-0.510549 -6.66196,1.208705 -13.20062,3.68944 -18.53848,7.033402 -38.837227,21.308099 -51.038907,35.892103 -6.631331,7.92608 -11.989777,16.81611 -14.201176,23.56073 -1.14958,3.50615 -1.184483,10.40707 -0.07149,14.13561 1.678702,5.62369 6.248933,11.49658 11.208227,14.40292 5.053041,2.96128 13.309,4.0062 18.794299,2.37872 z m 135.840561,-0.17149 c 4.35402,-1.24514 6.9625,-2.77947 10.28445,-6.04944 5.00311,-4.92482 7.27614,-10.44838 7.26722,-17.65967 -0.006,-4.9435 -0.76992,-7.72065 -3.78435,-13.75968 -9.34652,-18.72459 -28.98551,-36.733897 -52.88839,-48.499616 -7.75784,-3.818643 -16.76773,-7.197707 -20.9937,-7.873467 -1.83071,-0.292745 -2.00657,-0.229973 -1.76879,0.631343 0.61987,2.245244 32.30762,79.12898 33.703,81.77332 1.70934,3.2393 6.33722,7.827 9.5804,9.49723 5.86946,3.02275 12.42355,3.70633 18.60016,1.93998 z M 150.0091,140.95585 c 0.0161,-0.7243 -22.31163,-54.910984 -22.62618,-54.910984 -0.31455,0 -22.64227,54.186684 -22.62618,54.910984 0.005,0.20733 10.18639,0.37697 22.62618,0.37697 12.43979,0 22.62157,-0.16964 22.62618,-0.37697 z M 109.28868,57.510044 c 2.75981,-0.73351 5.60797,-0.86501 18.34555,-0.847011 13.98085,0.01975 15.36815,0.102132 19.0569,1.131573 2.18811,0.610651 4.06366,1.024989 4.16789,0.920756 0.38282,-0.382819 -2.41006,-6.019718 -4.17137,-8.419087 -2.84971,-3.882092 -8.5938,-7.551204 -14.02724,-8.960089 -2.58147,-0.669372 -7.97351,-0.669372 -10.55498,0 -7.84561,2.03436 -13.93143,7.11227 -17.0937,14.262724 -1.52646,3.451587 -1.52836,3.500376 -0.12096,3.100644 0.62199,-0.176655 2.60105,-0.711932 4.39791,-1.18951 z"
       id="path827" />
    <path
       id="path1136"
       style="fill:url(#linearGradient34259);stroke-width:0.609811;fill-opacity:1"
       d="m 194.83466,226.92423 c -1.00619,-0.62731 -6.28868,-5.66828 -11.73887,-11.20215 -9.84178,-9.9929 -9.90943,-10.08027 -9.90943,-12.80056 0,-3.08293 1.45251,-5.41094 4.29224,-6.87942 2.9132,-1.50647 5.07304,-1.128 8.30659,1.45559 4.50413,3.59878 18.1762,17.80339 19.38194,20.13689 1.80114,3.48579 0.0364,8.02972 -3.72961,9.60327 -2.6929,1.12516 -4.42725,1.04279 -6.60286,-0.31362 z m -71.46144,29.2268 c -3.38527,-2.06415 -3.49754,-2.65861 -3.52247,-18.65173 -0.0254,-16.25922 0.0792,-16.74593 4.1265,-19.21375 2.46915,-1.50553 4.47842,-1.50491 6.95009,0.002 3.71405,2.26459 3.93542,3.38753 3.8752,19.6575 -0.0586,15.83471 -0.0917,16.00729 -3.50711,18.25921 -2.21533,1.46067 -5.47513,1.43871 -7.92221,-0.0534 z M 53.66338,227.6387 c -1.535709,-0.56139 -3.521292,-2.64347 -4.289418,-4.4979 -1.57452,-3.80122 -0.555853,-5.52862 9.057797,-15.35969 10.097575,-10.32594 12.932594,-12.64154 15.477167,-12.64154 5.871231,0 9.817012,6.89965 6.491836,11.35172 -2.094293,2.80404 -17.048919,17.87219 -19.663596,19.81286 -2.276757,1.68986 -4.799725,2.16585 -7.073786,1.33455 z m 66.7659,-37.00766 c -11.03239,-2.10208 -21.083562,-8.50512 -27.53354,-17.54007 l -1.929893,-2.70334 3.716251,-6.22327 3.71625,-6.22327 h 29.151282 29.15129 l 1.61683,3.2015 c 0.88926,1.76083 2.40317,4.34862 3.36423,5.75063 0.96108,1.40201 1.74741,2.87453 1.74741,3.27226 0,1.30694 -4.26902,6.57201 -8.39182,10.34981 -9.0471,8.29002 -22.91553,12.34366 -34.60829,10.11575 z" />
    <path
       style="opacity:0.01;fill:none;stroke:#000000;stroke-width:1px;stroke-linecap:butt;stroke-linejoin:miter;stroke-opacity:1"
       d="m 23.289731,15.859705 c 33.257384,-18.5435555 65.0846,-28.006292 93.359219,-27.926237 40.74995,0.115376 75.113,11.26174962 109.02197,22.72319"
       id="path9480" />
    <path
       style="opacity:0.01;fill:none;stroke:#000000;stroke-width:1px;stroke-linecap:butt;stroke-linejoin:miter;stroke-opacity:1"
       d="m 26.250558,290.42047 c 103.403832,71.27968 209.415582,6.49436 209.415582,6.49436"
       id="path9482" />
    <text
       xml:space="preserve"
       style="font-style:normal;font-weight:normal;font-size:40px;line-height:1.25;font-family:sans-serif;text-align:center;text-anchor:middle;fill:#660066;fill-opacity:1;stroke:none"
       id="text11707"
       transform="translate(3.6992877,-8.713797)"><textPath
         xlink:href="#path9480"
         startOffset="50%"
         id="textPath34021"><tspan
           id="tspan11705"
           style="fill:#660066;fill-opacity:1">Sync'up</tspan></textPath></text>
    <text
       xml:space="preserve"
       style="font-style:normal;font-weight:normal;font-size:29.3333px;line-height:1.25;font-family:sans-serif;text-align:center;text-anchor:middle;fill:#660066;fill-opacity:1;stroke:none"
       id="text14285"
       transform="translate(-4.1250835,-35.386502)"><textPath
         xlink:href="#path9482"
         startOffset="50%"
         id="textPath20455"><tspan
           id="tspan14283"
           style="font-size:29.3333px;fill:#660066;fill-opacity:1">for the climate</tspan></textPath></text>
  </g>
</svg>
